<?xml version="1.0" encoding="UTF-8"?>
<svg id="Capa_2" data-name="Capa 2" xmlns="http://www.w3.org/2000/svg" viewBox="0 0 1898.92 311.33">
  <defs>
    <style>
      .cls-1 {
        fill: #00e7ff;
      }

      .cls-2 {
        opacity: .46;
      }
    </style>
  </defs>
  <g id="Capa_5" data-name="Capa 5">
    <g>
      <polyline class="cls-1" points="217.58 294.34 211.12 294.43 217.58 294.34 217.58 288.68 22.22 288.68 22.22 56.61 73 5.83 116.99 5.83 116.99 0 70.58 0 16.39 54.2 16.39 294.51 211.75 294.51"/>
      <polygon class="cls-1" points="214.67 0 214.67 5.83 1872.28 5.83 1872.28 224.78 1808.38 288.68 225.24 288.68 225.24 294.51 1810.79 294.51 1878.11 227.19 1878.11 0 214.67 0"/>
    </g>
    <g class="cls-2">
      <polygon class="cls-1" points="74.89 21.35 35.34 60.9 35.34 274.05 1796.49 274.05 1857.39 213.15 1857.39 21.35 74.89 21.35"/>
    </g>
    <polygon class="cls-1" points="16.39 213.02 16.39 294.51 81.93 294.95 65.54 311.33 0 311.33 0 229.4 16.39 213.02"/>
    <path class="cls-1" d="M1898.92,106.86h0c-3.15,0-5.7-2.55-5.7-5.7h-5.7v17.1h5.7c0-3.15,2.55-5.7,5.7-5.7h0v-5.7Z"/>
    <path class="cls-1" d="M1898.92,129.66h0c-3.15,0-5.7-2.55-5.7-5.7h-5.7v17.1h5.7c0-3.15,2.55-5.7,5.7-5.7h0v-5.7Z"/>
    <path class="cls-1" d="M1898.92,152.46h0c-3.15,0-5.7-2.55-5.7-5.7h-5.7v17.1h5.7c0-3.15,2.55-5.7,5.7-5.7h0v-5.7Z"/>
    <path class="cls-1" d="M1898.92,38.47h0c-3.15,0-5.7-2.55-5.7-5.7h-5.7v17.1h5.7c0-3.15,2.55-5.7,5.7-5.7h0v-5.7Z"/>
    <path class="cls-1" d="M1898.92,61.27h0c-3.15,0-5.7-2.55-5.7-5.7h-5.7v17.1h5.7c0-3.15,2.55-5.7,5.7-5.7h0v-5.7Z"/>
    <path class="cls-1" d="M1898.92,84.07h0c-3.15,0-5.7-2.55-5.7-5.7h-5.7v17.1h5.7c0-3.15,2.55-5.7,5.7-5.7h0v-5.7Z"/>
  </g>
</svg>