<?xml version="1.0" encoding="UTF-8"?>
<svg xmlns="http://www.w3.org/2000/svg" xmlns:xlink="http://www.w3.org/1999/xlink" viewBox="0 0 1194.91 657.38">
  <defs>
    <style>
      .cls-1 {
        fill: #351c2b;
      }

      .cls-2 {
        fill: #cffcf9;
      }

      .cls-3, .cls-4 {
        fill: #fff;
      }

      .cls-5 {
        fill: #1d2a35;
      }

      .cls-6 {
        fill: #511013;
      }

      .cls-7 {
        fill: #556b69;
      }

      .cls-8 {
        fill: url(#Degradado_sin_nombre_137);
      }

      .cls-8, .cls-9, .cls-10, .cls-11, .cls-12, .cls-13 {
        mix-blend-mode: screen;
      }

      .cls-14 {
        fill: aqua;
      }

      .cls-15 {
        fill: #27221f;
      }

      .cls-16 {
        fill: #3d4b56;
      }

      .cls-17 {
        fill: #0c0c0c;
      }

      .cls-18 {
        fill: #03566f;
      }

      .cls-19 {
        isolation: isolate;
      }

      .cls-20 {
        fill: #2a3e51;
      }

      .cls-21 {
        fill: #36c7c2;
      }

      .cls-22 {
        fill: #a44946;
      }

      .cls-9 {
        fill: url(#_Áåçûìÿííûé_ãðàäèåíò_3-4);
      }

      .cls-10 {
        fill: url(#_Áåçûìÿííûé_ãðàäèåíò_3);
      }

      .cls-23 {
        fill: #141f33;
      }

      .cls-24 {
        clip-path: url(#clippath-1);
      }

      .cls-11 {
        fill: url(#_Áåçûìÿííûé_ãðàäèåíò_3-3);
      }

      .cls-4 {
        opacity: .57;
      }

      .cls-25 {
        fill: #277c7a;
      }

      .cls-12 {
        fill: url(#Degradado_sin_nombre_137-2);
      }

      .cls-26 {
        fill: #d69b8e;
      }

      .cls-27 {
        fill: #00fecf;
      }

      .cls-28 {
        fill: #291520;
      }

      .cls-29 {
        fill: #249184;
      }

      .cls-30 {
        clip-path: url(#clippath);
      }

      .cls-31 {
        fill: #339f9f;
      }

      .cls-32 {
        fill: #ffc7b6;
      }

      .cls-33 {
        fill: none;
      }

      .cls-34 {
        fill: #5e0b0f;
      }

      .cls-35 {
        fill: #ed8472;
      }

      .cls-13 {
        fill: url(#_Áåçûìÿííûé_ãðàäèåíò_3-2);
      }

      .cls-36 {
        fill: #a2bfdc;
      }

      .cls-37 {
        fill: #0a5951;
      }

      .cls-38 {
        fill: #8e3d3d;
      }

      .cls-39 {
        fill: #9bafae;
      }

      .cls-40 {
        fill: #7c0507;
      }

      .cls-41 {
        fill: #7a848c;
      }

      .cls-42 {
        fill: #00b0df;
      }

      .cls-43 {
        fill: #1e1e1e;
      }

      .cls-44 {
        fill: #5b0604;
      }
    </style>
    <linearGradient id="Degradado_sin_nombre_137" data-name="Degradado sin nombre 137" x1="1281.12" y1="93.42" x2="1296.24" y2="166.65" gradientTransform="translate(1848.59 198.8) rotate(-170.42) scale(1 -1)" gradientUnits="userSpaceOnUse">
      <stop offset=".08" stop-color="#747f83"/>
      <stop offset=".25" stop-color="#5c6568"/>
      <stop offset=".76" stop-color="#1a1c1d"/>
      <stop offset="1" stop-color="#000"/>
    </linearGradient>
    <linearGradient id="_Áåçûìÿííûé_ãðàäèåíò_3" data-name="Áåçûìÿííûé ãðàäèåíò 3" x1="1038" y1="494.78" x2="1239.69" y2="860.29" gradientTransform="translate(1925.27 1352.89) rotate(-103.16) scale(1 -1)" gradientUnits="userSpaceOnUse">
      <stop offset=".04" stop-color="#bdb58f"/>
      <stop offset=".99" stop-color="#020201"/>
      <stop offset="1" stop-color="#000"/>
    </linearGradient>
    <linearGradient id="_Áåçûìÿííûé_ãðàäèåíò_3-2" data-name="Áåçûìÿííûé ãðàäèåíò 3" x1="1251.17" y1="886.63" x2="1278.05" y2="915.63" xlink:href="#_Áåçûìÿííûé_ãðàäèåíò_3"/>
    <linearGradient id="_Áåçûìÿííûé_ãðàäèåíò_3-3" data-name="Áåçûìÿííûé ãðàäèåíò 3" x1="1136.69" y1="826.73" x2="1338.37" y2="1192.25" gradientTransform="translate(-1384.5 891.27) rotate(24.88) scale(1 -1)" xlink:href="#_Áåçûìÿííûé_ãðàäèåíò_3"/>
    <linearGradient id="_Áåçûìÿííûé_ãðàäèåíò_3-4" data-name="Áåçûìÿííûé ãðàäèåíò 3" x1="1349.86" y1="1218.58" x2="1376.74" y2="1247.58" gradientTransform="translate(-1384.5 891.27) rotate(24.88) scale(1 -1)" xlink:href="#_Áåçûìÿííûé_ãðàäèåíò_3"/>
    <linearGradient id="Degradado_sin_nombre_137-2" data-name="Degradado sin nombre 137" x1="501.16" y1="498.72" x2="504.27" y2="535.36" gradientTransform="translate(-191.28 857.9) rotate(24.46) scale(1 -1)" xlink:href="#Degradado_sin_nombre_137"/>
    <clipPath id="clippath">
      <path class="cls-33" d="M494.41,59.27s-2.51,3.53-8.96,2.84-8.34-6.53-8.34-6.53c0,0,3.03-.23,9.19,.39s8.11,3.31,8.11,3.31Z"/>
    </clipPath>
    <clipPath id="clippath-1">
      <path class="cls-33" d="M507.59,59.27s2.51,3.53,8.96,2.84,8.34-6.53,8.34-6.53c0,0-3.03-.23-9.19,.39s-8.11,3.31-8.11,3.31Z"/>
    </clipPath>
  </defs>
  <g class="cls-19">
    <g id="Capa_2" data-name="Capa 2">
      <g id="Capa_5" data-name="Capa 5">
        <path class="cls-20" d="M661.41,282.11c6.22,.56,20.27,6.16,26.4,7.36,1.88,6.8,1,6.4,.87,13.46-1.27,.55-2.2,1.38-3.47,1.93,1.36-.04,3.06,.38,4.38,.72,4.23,7.32,5.14,11.35,4.48,18.43-8.56-3.65-19.72-2.76-26.21-5.12-6.54-.47-15.72-3.95-21.3-7-1.53-4.14-1.25-7.88-1.34-12.29-.11-5.61,3.51-.14,4.06-5.72-1.13-1.97-2-4.1-2.89-6.19,5.16-5.74,1.01-10.03,8.21-12.8,1.26,1.22,6.29,5.55,6.82,7.22Z"/>
        <path class="cls-1" d="M499.02,455.22s10.15-6.82,15.96,0,4.29,2.78,4.29,2.78c0,0-10.26-119.45-19.85-133.3s-43.31,46.21-43.31,46.21l-52.42,82.23-4.04,12.33h38.15c.71,0,1.41-.14,2.06-.4l20.93-8.42c1.86-.75,3.07-2.56,3.04-4.57l-.13-10.69c0-.54,.54-.91,1.04-.7l1.79,.76s27.09,18.88,28.23,14.15-1.52-11.37,.76-7.96,3.49,7.58,3.49,7.58Z"/>
        <path class="cls-1" d="M237.64,431.69c-1.98-2.67-5.41-6.22-5.41-6.22-2.21-1.77-8.97-5.81-12.57-7.33-3.6-1.52-13.39-5.43-14.9-7.15-1.51-1.71-4.9-2.49-8.09-3.72-3.19-1.23-15.38,2.49-15.38,2.49-2.26,.92-6.6,3.17-9.38,7.71-3.88,6.35-15.25,14.02-17.91,15.25-2.65,1.23-12.6,1.04-12.6,1.04,0,0,15.44,9.38,29.84,.47l6.25-.95,6.54-6.35s2.94-2.08,1.33,1.89-.57,.19,3.79,.09,14.4-1.23,16.2-.85c1.8,.38-.47-1.94,1.99-1.68,2.46,.26,6.16-.21,4.55,.64-1.61,.85,8.15,1.14,11.18,3.13,3.03,1.99,4.07,4.07,8.53,3.88,0,0,.85,.26,2.18,.17,1.33-.09,5.21,.66,5.21,.66l1.22,.27s-.59-.81-2.57-3.48Zm-62.7-9.13c-.57,5.05-7.96,2.34-7.96,2.34,0,0,8.53-7.39,7.96-2.34Z"/>
        <path d="M590.51,214.56c-.73-.71-4.18-8.03-4.45-8.99-1.21-4.26-.36-1.62-1.44-5.92-6.33-25.23-15.25-49.66-24.62-73.97-3.35-8.69-6.96-14.14-12.27-21.9-2.17-3.18-2.32-3.05-6.16-2.1-8.29,2.06-13.7,3.49-19.78,4.87l16.24,47.07c.9,.85,1.78,1.53,2.4,2.39,1.92,2.63,3.88,5.25,5.54,8.04,10.68,17.97,19.17,37,27.89,55.92,2.45,5.33,2.02,3.75,4.83,8.96,.15,.29,.94,1.31,1.91,2.53,3.72,2.45,11.36,.94,13.71-1.7,1.89-2.12,1.51-8.67-1.1-12.63-.85-.8-1.75-1.64-2.71-2.57Z"/>
        <path class="cls-41" d="M577.66,207.79l-15.89,7.76c5,15.08,13.82,22.28,29.42,32.45l14.75-17.25-28.28-22.97Z"/>
        <path class="cls-20" d="M545.98,164.05c6.84,15.39,21.08,56.01,34.61,70.79,1.1,1.2,2.19,2.23,3.27,3.06,10.88-8.73,14.09,.27,15.89-13.56-8.41-5.67-24.74-60.04-30.28-68.53-9.82,5.5-13.28,3.5-23.48,8.25Z"/>
        <path class="cls-36" d="M525.47,94.57s0-.01,.01-.02c11-7.8,26.81-11.2,38.88-6.75,11.94,18.54,17.61,41.04,15.92,63.02-5.98,3.84-13.2,6.06-19.2,6.86-10.27-22.07-21.53-43.04-35.62-63.11Z"/>
        <path class="cls-41" d="M523.01,98.02c.75-1.11,1.57-2.26,2.46-3.45,14.09,20.07,25.36,41.04,35.62,63.11,5.99-.8,13.21-3.02,19.2-6.86,0,.06,0,.11,0,.17-1.29,1.44-2.43,2.68-3.6,3.83-5.35,2.56-11.57,4.87-17.18,5.51-10.87-21.62-22.69-42.46-36.49-62.32Z"/>
        <path class="cls-20" d="M523.01,98.02c13.81,19.86,25.63,40.7,36.49,62.32,5.61-.64,11.83-2.94,17.18-5.51-1.71,1.69-3.48,3.22-5.92,4.94-6.19,3.36-15.67,6.61-22.71,6.36l-.48-.08c-15.88-11.16-28.29-26.26-33.17-46.43,1.42-8.03,3.51-14.08,8.6-21.6Z"/>
        <path class="cls-39" d="M519.27,114.15l2.31-1.23c3.69,.21,6.93,2.5,9.63,5.04,4.98,4.68,8.92,10.47,11.43,16.82,1.89,4.79,2.96,10.2,1.27,15.06l-2.31,1.23c-10.73-4.72-19.54-15.04-22.63-26.35-.96-3.51-1.54-7.43,.31-10.56Z"/>
        <path class="cls-7" d="M541.6,151.07c1.7-4.86,.62-10.27-1.27-15.06-2.51-6.36-6.44-12.15-11.43-16.82-2.7-2.53-5.94-4.83-9.63-5.04-1.85,3.13-1.27,7.05-.31,10.56,3.09,11.31,11.9,21.64,22.63,26.35Z"/>
        <path class="cls-23" d="M539.31,146.4c.1-2.71-.53-5.8-1.88-9.24-2.34-5.92-6.02-11.34-10.66-15.7-2-1.88-3.82-3.11-5.51-3.73-.24,1.56,0,3.56,.7,6.16,2.51,9.18,9.13,17.65,17.34,22.5Z"/>
        <path class="cls-8" d="M562.03,153.98c5.68-.95,11.37-3.01,15.97-5.78,1.39-21.03-4.02-42.3-15.29-60.1-1.45-.49-2.99-.87-4.58-1.14-9.52-1.6-21.09,1.03-30.05,6.73,12.03,17.37,22.86,36.62,33.94,60.28Z"/>
        <path class="cls-5" d="M623.02,248.01c-5.21,4.65-9.72,10.25-13.12,16.31,11.16,9.91,23.69,18.32,37.1,24.89,3.35-4.51,6.12-9.44,8.23-14.65-4.69-6-10.4-11.23-16.5-15.88-5.03-3.84-10.34-7.31-15.71-10.67Z"/>
        <path class="cls-36" d="M647,289.21c-.65,.87-1.31,1.73-2,2.56-13.94-4.2-26.98-13.24-36.98-23.84,.58-1.22,1.21-2.42,1.88-3.61,11.16,9.91,23.69,18.32,37.1,24.89Zm-8.27-30.53c6.1,4.65,11.81,9.89,16.5,15.88,.43-1.07,.85-2.15,1.23-3.25-7.02-11.48-17.57-20.92-30.16-26.05-1.12,.87-2.21,1.79-3.28,2.75,5.37,3.36,10.67,6.83,15.71,10.67Z"/>
        <path class="cls-16" d="M645.84,285.67l-31.27-22.08c.26-1.99,1.11-3.41,2.67-4.16l29.8,24.37-1.2,1.87Z"/>
        <polygon class="cls-7" points="711.89 332.23 708.17 324.29 714.3 304.92 721.94 298.67 711.89 332.23"/>
        <path class="cls-23" d="M636.79,286.81l-3.47,12.41,77.62,24.34c3-5.53,4.62-11.3,4.84-17.33l-78.99-19.43Z"/>
        <polygon class="cls-27" points="748.59 296.38 733.93 348.85 1128.69 461.69 1178.87 452.72 1140.61 419.04 748.59 296.38"/>
        <polygon class="cls-21" points="740.18 345.26 1128.89 456.52 1167.67 449.59 1138.1 423.56 752.08 302.69 740.18 345.26"/>
        <polygon class="cls-10" points="1129.08 451.89 1157.63 446.79 1135.86 427.62 755.2 308.34 745.78 342.05 1129.08 451.89"/>
        <polygon class="cls-36" points="721.94 298.67 711.89 332.23 747.31 360.85 766.06 293.08 721.94 298.67"/>
        <polygon class="cls-36" points="623.97 279.88 618.77 298.51 634.12 306.72 641.35 280.82 623.97 279.88"/>
        <polygon class="cls-2" points="749.58 352.95 1128.69 461.69 1178.87 452.72 1140.61 419.04 764.1 300.99 1146.29 414.41 1194.91 457.4 1130.4 468.5 749.58 352.95"/>
        <polygon class="cls-7" points="752.04 344.15 751.52 346.01 726.29 319.09 762.74 305.86 752.04 344.15"/>
        <polygon class="cls-14" points="732.41 320.14 752.71 343.18 781.27 333.8 761.64 309.79 732.41 320.14"/>
        <polygon class="cls-13" points="779.87 333.52 756.42 341.47 773.46 331.1 760.49 314.99 748.75 315.56 761.33 310.54 779.87 333.52"/>
        <g>
          <path class="cls-41" d="M691.51,304.66c-.68,.61-1.55,1.07-2.66,1.58-2.92-.26-5.88-.05-8.7,.48-1.05-4.96-3.16-9.88-5.8-14.4,0,0,.16-2.12,.53-3.01,6.1,4.13,12.23,9.65,16.63,15.35Z"/>
          <path class="cls-36" d="M681.04,304.37c3.4-.47,7.01-.29,10.47,.29,.12-5.19-1.29-10.33-3.69-15.19-4.25-1.33-8.85-1.39-12.93-.16,2.83,4.52,4.69,10.08,6.16,15.06Z"/>
        </g>
        <polygon class="cls-20" points="593.54 245.26 583.85 237.89 593.54 220.69 599.74 224.33 623.02 250.37 614.57 263.59 593.54 245.26"/>
        <g>
          <path class="cls-41" d="M698.28,310.65c-.53-.65-1.23-1.18-2.12-1.79-2.48-.14-4.95-.71-7.29-1.56-1.24,4.38-3.37,8.6-5.92,12.38,0,0-.02,1.95,.23,2.81,5.43-2.98,11-7.21,15.11-11.85Z"/>
          <path class="cls-36" d="M689.44,309.56c2.83,.86,5.88,1.17,8.84,1.09-.27,4.75-1.83,9.25-4.21,13.37-3.67,.66-7.55,.12-10.9-1.52,2.71-3.76,4.68-8.58,6.27-12.93Z"/>
        </g>
        <g>
          <path class="cls-41" d="M687.25,308.52c-.53-.65-1.23-1.18-2.12-1.79-2.48-.14-4.95-.71-7.29-1.56-1.24,4.38-3.37,8.6-5.92,12.38,0,0-.02,1.95,.23,2.81,5.43-2.98,11-7.21,15.11-11.85Z"/>
          <path class="cls-36" d="M678.42,307.43c2.83,.86,5.88,1.17,8.84,1.09-.27,4.75-1.83,9.25-4.21,13.37-3.67,.66-7.55,.12-10.9-1.52,2.71-3.76,4.68-8.58,6.27-12.93Z"/>
        </g>
        <g>
          <path class="cls-41" d="M663.92,303.7c-.37-.75-.94-1.42-1.67-2.21-2.39-.69-4.67-1.79-6.76-3.14-2.19,4-5.2,7.64-8.52,10.75,0,0-.45,1.9-.4,2.79,5.96-1.7,12.33-4.59,17.36-8.19Z"/>
          <path class="cls-36" d="M655.55,300.68c2.56,1.47,5.48,2.45,8.37,3.02-1.32,4.57-3.84,8.61-7.07,12.1-3.73-.17-7.39-1.56-10.29-3.9,3.48-3.06,6.47-7.33,8.99-11.22Z"/>
        </g>
        <g>
          <path class="cls-41" d="M675.73,306.65c-.5-.67-1.18-1.23-2.04-1.88-2.47-.25-4.92-.93-7.22-1.88-1.44,4.33-3.75,8.44-6.46,12.1,0,0-.1,1.95,.1,2.82,5.56-2.73,11.31-6.72,15.62-11.17Z"/>
          <path class="cls-36" d="M666.95,305.18c2.78,.99,5.82,1.43,8.78,1.48-.48,4.73-2.24,9.16-4.79,13.17-3.7,.5-7.55-.21-10.82-2,2.87-3.63,5.05-8.37,6.84-12.64Z"/>
        </g>
        <polygon class="cls-7" points="625.7 282.42 621.91 296.8 631.76 302.69 637.45 283.37 625.7 282.42"/>
        <polygon class="cls-7" points="787.7 335.25 762.74 305.86 761.64 309.79 781.27 333.8 752.41 342.84 751.52 346.01 787.7 335.25"/>
        <path class="cls-16" d="M593.54,245.26c11.23-2.1,11.89-16.09,13.21-19.12s-5.49-3.98-5.49-3.98c-4.36-2.46-9.47-19.14-10.61-21.48s-3.41,0-3.41,0l.73,1.81c-4.48,10.61-22.63,11.32-22.63,11.32,0,0,6.78,13.16,11.35,17.45s11.82,11.39,14.34,12.69l2.51,1.31Z"/>
        <path class="cls-41" d="M492.24,622.59c2.24,6.94,4.04,13.95,5.36,20.95-2.67,1.47-5.84,1.97-9.1,1.76,.78,1.06,1.65,2.09,2.58,2.93,3.34,.03,6.41-1.01,8.97-2.9-.87-7.09-2.46-14.28-5.09-21.28-.82-.64-1.83-1.1-2.73-1.46Z"/>
        <g>
          <polygon class="cls-27" points="401.83 355.86 369.54 311.98 37.42 553.37 13.56 598.42 63.67 589.04 401.83 355.86"/>
          <polygon class="cls-21" points="368.51 319.11 41.37 556.72 22.94 591.53 61.65 584.28 394.71 354.72 368.51 319.11"/>
          <polygon class="cls-11" points="44.91 559.72 31.33 585.35 59.84 580.01 388.34 353.7 367.59 325.51 44.91 559.72"/>
          <polygon class="cls-36" points="416.45 333.46 396.21 304.87 351.84 315.12 393.67 371.65 416.45 333.46"/>
          <polygon class="cls-2" points="356.67 321.79 37.42 553.37 13.56 598.42 63.67 589.04 388.64 365.23 63.82 596.37 0 608.17 31.01 550.53 356.67 321.79"/>
          <polygon class="cls-7" points="362.08 329.14 360.94 327.59 397.68 324.3 385.64 361.16 362.08 329.14"/>
          <polygon class="cls-14" points="393.08 328.48 362.43 330.27 352.22 358.55 383.22 357.88 393.08 328.48"/>
          <polygon class="cls-9" points="353.31 357.61 361.49 334.24 359.16 354.06 379.84 353.77 386.63 344.17 382.83 357.17 353.31 357.61"/>
          <polygon class="cls-7" points="347.12 362.71 385.64 361.16 383.22 357.88 352.22 358.55 362.89 330.24 360.94 327.59 347.12 362.71"/>
        </g>
      </g>
      <g id="Capa_7" data-name="Capa 7">
        <path class="cls-20" d="M463.1,229.92c-5.19,13.88-12.9,37.8-11.97,55.35-.27,3.46-.1,6.96,.67,10.5,1.09,4.99,2.3,9.95,3.34,14.94,6.62,31.79,13.35,63.56,19.73,95.4,2.97,14.83,5.25,29.8,7.74,44.72,.6,3.57,.82,7.21,1.19,10.82,.26,2.48-.23,4.82-1.15,7.22-5.18,13.47-10.18,27.01-15.28,40.51-1.65,4.37-1.62,8.61-.64,13.19,5.43,25.32,10.61,50.68,15.7,76.07,1.22,6.08,2.16,12.27,2.48,18.45,.26,5.12-.54,10.31-.97,15.47-.32,3.87-.87,7.73-1.18,11.6-.08,.98,.13,2.1,.59,2.96,1.43,2.71,3.05,5.34,4.72,8.22,2.88-2.65,5.69-4.88,8-7.52,1.1-1.25,1.54-3.26,1.75-4.97,.62-5.11-.11-10.2-1.87-14.91-3.34-8.93-3.84-18.24-4.39-27.56-.96-15.98-1.28-31.98-.04-48,.88-11.34,2.35-22.59,6.29-33.45,.26-.71,.18-1.58,.08-2.35-1.46-12.15-3.2-24.27-4.32-36.45-.46-5.02,.28-10.18,.68-15.26,2.36-29.63,4.67-59.26,7.24-88.88,.71-8.22,2.26-16.39,3.46-24.57,.12-.84,.46-1.65,.98-2.45l.96-47.79,.53-.12-17.9-76.73-26.43,5.58Z"/>
        <path d="M504.31,188.69l.04,3.28,27.72,.28c-4.72-6.85-8.15-11.16-8.15-11.16l22.25-58.13,2.51-35.28-29.54-3.6-1.98-24.27h-21.6l-.71,24.19-29.55,1.41-1.26,38.58,20.21,58.41s-2.85,3.61-6.81,9.3l26.92,.28-.04-3.28Z"/>
        <path d="M542.14,387.49c-.69,5.05-1.07,10.25-2.59,15.06-3.69,11.66-7.97,23.14-11.99,34.69-.26,.74-.52,1.57-.42,2.32,1.52,11.45,.57,22.76-.99,34.02-2.21,15.91-5.94,31.48-10.28,46.88-2.54,8.99-5.01,17.98-10.17,25.99-2.73,4.23-4.52,9.05-5.01,14.17-.16,1.72-.15,3.77,.65,5.23,1.69,3.07,3.97,5.85,6.22,9.05,2.25-2.46,4.38-4.68,6.36-7.02,.63-.75,1.08-1.79,1.21-2.77,.52-3.85,.81-7.73,1.32-11.58,.68-5.13,1-10.37,2.35-15.32,1.63-5.98,3.87-14.82,6.36-20.5,10.39-23.72,20.86-44.4,31.56-67.97,1.94-4.27,2.87-8.4,2.19-13.02-2.1-14.28-4.1-28.57-6.29-42.84-.39-2.54-.36-4.92,.42-7.29,1.13-3.45,2.13-6.95,3.47-10.32,.48-1.21,.96-2.42,1.44-3.63-4.33-2-8.65-4-12.98-5.99-.95,6.95-1.9,13.89-2.85,20.84Z"/>
        <path d="M437.54,234.49c.41-.74,1.33-7.42,1.31-8.25-.09-3.69-.11-1.38-.32-5.06-1.21-21.63-.17-43.26,1.27-64.91,.51-7.73,2.04-12.96,4.33-20.45,.94-3.06,1.09-3,4.38-3.19,7.1-.42,11.76-.62,16.93-1.03l-1.26,41.45c-.5,.9-1.04,1.66-1.32,2.5-.87,2.57-1.78,5.14-2.41,7.77-4.05,16.93-6.08,34.16-8.33,51.36-.63,4.84-.68,3.48-1.62,8.32-.05,.26-.43,1.27-.89,2.49-2.36,2.87-8.8,3.56-11.32,2.04-2.02-1.22-3.34-6.52-2.25-10.31,.48-.85,.99-1.74,1.52-2.71Z"/>
        <path d="M436.78,235.82c3.18-4.46,6.83-4.85,8.92-3.45,2.2,1.47,4.75,4.22,3.91,12.09-.8,2.28-1.88,5.28-1.99,5.8-.75,3.43-1.66,6.85-2.14,10.32-2.26,16.56-2.49,39.11-2.54,55.8h-9.98c0-1.07-.01-18.92,0-19.98,.2-18.97,1.8-23.26,.56-40.47-.21-2.93-.74-5.89-.49-8.78,.4-4.66,1.82-7.54,3.76-11.33Z"/>
        <path class="cls-32" d="M432.95,316.39s9.5-3.73,10.23-1.41c2.56,8.1,5.54,10.16,7.91,13.92,2.38,3.76,4.9,9.01,3.21,10.08-1.69,1.07-7.97-4.7-9.28-6.77-1.31-2.07-5.25,8.97-5.98,12.2-.73,3.22,4.68,12.83,2.61,14.14-2.07,1.31-10.71-12.18-11.84-13.97-1.13-1.79,2.45-25.11,3.14-28.18Z"/>
        <path class="cls-26" d="M435.56,333.83c1.19,5.13,2.33,10.29,4.58,15.08-3.17-4.3-4.42-9.82-4.58-15.08h0Z"/>
        <path class="cls-26" d="M437.5,346.24c-2.5-3.23-4.9-7.39-4.28-11.62,.45,4.18,2.65,7.8,4.28,11.62h0Z"/>
        <g>
          <path class="cls-43" d="M544.14,117.2c0-.06,0,0,0-.06,2.84-2.02,3.67-6.61,1.79-11.06-2.14-5.05-6.98-7.99-10.82-6.56-3.83,1.43-5.21,6.68-3.07,11.74,1.99,4.7,6.32,7.57,10,6.8,0,.01,0,.02,0,.03,1.06-.29,1.4-.45,2.1-.89Z"/>
          <path class="cls-36" d="M544.18,115.83c3.11-2.26,3.57-7.65,1.02-12.04-2.55-4.39-7.14-6.11-10.25-3.85-3.11,2.26-3.57,7.65-1.02,12.04,2.55,4.39,7.14,6.11,10.25,3.85Z"/>
          <path class="cls-43" d="M540.16,116.35c-.16,.11-.32,.22-.48,.31,1.59,.38,3.17,.14,4.5-.82,3.11-2.26,3.57-7.65,1.02-12.04-2.42-4.17-6.68-5.93-9.76-4.16,2.15,.51,4.29,2.15,5.75,4.68,2.55,4.39,2.09,9.78-1.02,12.04Z"/>
        </g>
        <path class="cls-36" d="M508.47,562.29c2.25-7.33,6.24-14.45,11.55-20.75,.02,0,.04,0,.05-.01,2.88,1.19,4.16-.96,6.17,1.21-5.92,8.72-8.22,22.45-8.5,31.94-3.73-1.33-7.15-3.2-10.09-5.57-.29-2.19,.13-4.55,.83-6.82Z"/>
        <path class="cls-41" d="M508.47,562.29c-.7,2.27-1.11,4.63-.83,6.82,2.94,2.36,6.36,4.23,10.09,5.57,0,.01,0,.03,0,.04-1.98,1.25-8.02,.42-10.17,.19-2.85-.89-3.08-5.26-5.59-7.97,1.94-8.63,6.3-13.54,12.13-21.14,.7-.91,2.44-3.04,2.44-3.04,0,0,2.32-1.03,3.47-1.22-5.31,6.29-9.29,13.42-11.55,20.75Z"/>
        <path class="cls-41" d="M478.81,386.65c5.19,2.29,11.13,2.54,16.68,1.39,4.48-.93,7.36-3.36,10.33-6.02-1.28-.58-1.79-.75-1.79-.81-1.29-.69-1.35-.39-2.63-1.08-7.76,3.63-13.86,5.05-21.88,2.04-8.02-3.01-9.57-9.15-13.02-16.99-1.01,.49-2.17,.67-3.18,1.17,0,.02,0,0,0,.02,1.87,3.78,2.11,8.28,4.73,11.58,2.89,3.65,6.49,6.82,10.75,8.7Z"/>
        <path class="cls-36" d="M501.47,410.25c1.28-9.23,3.62-19.09,4.36-28.23-4,2.23-5.86,5.09-10.33,6.02-5.55,1.15-11.49,.9-16.68-1.39-4.26-1.88-7.86-5.05-10.75-8.7-2.62-3.3-2.87-7.82-4.73-11.61,2.91,9.99,3.13,21.13,5.43,31.28,1.22,5.41,2.95,10.38,3.38,15.32,4.99,4.82,9,6.58,15.94,6.31,6.93-.28,8.81-3.79,13.4-8.99Z"/>
        <path class="cls-41" d="M475.59,530.73c3.73,1.51,8.07,1.51,12.17,.5,3.31-.82,6.46-2.28,9.46-4.04,0-.05,.48-.49,.49-.54-.92-.46-1-.89-1.92-1.36-5.79,2.9-13.76,4.09-19.54,2.14-5.78-1.96-8.05-6.01-10.33-11.64-.75,.39-1.64,.77-2.4,1.16,0,.02,0,.04,.01,.05,1.25,2.71,2.64,5.36,4.45,7.69,2,2.58,4.54,4.79,7.6,6.03Z"/>
        <path class="cls-36" d="M493.8,547.68c.83-6.72,3.09-14.31,3.91-21.03-3,1.76-6.64,3.76-9.95,4.57-4.1,1.02-8.44,1.02-12.17-.5-3.06-1.24-5.6-3.45-7.6-6.03-1.81-2.34-3.2-4.98-4.45-7.69,1.82,7.22,5.3,14.59,5.65,22.15,.16,3.44,1.03,6.58,.57,10.04,3.5,3.37,6.51,5.52,11.59,5.1,5.08-.42,8.93-2.67,12.45-6.62Z"/>
      </g>
      <g id="Capa_4" data-name="Capa 4">
        <path class="cls-44" d="M450.23,104.86c-.05-.71-.24-1.05-.24-1.05l.24,1.05Z"/>
        <path class="cls-44" d="M510.7,510.94c-.05,.07-.08,.12-.08,.12,0,0,.03-.04,.08-.12Z"/>
        <path class="cls-28" d="M547.23,166.04v-.03s0,.03,0,.05v-.02Z"/>
        <path class="cls-40" d="M595.66,490.32l-.87-2.31-1.35-2.48c-.62-1.17-1.27-2.33-1.85-3.4l-.86-3.45s0,0,0-.01l-.65-7.43-.52-7.2-.24-4.22-.45-9.53-.42-11.84-.2-7.34-.62-2.75,.3-10.42,.02-1.33c.04-1.4,.06-2.8,.08-4.22l.21-11.51-.98-16.71-1.47-13.82-1.55-9.21-1.92-15.92-.55-6.81-.56-2.01c-.27-1.19-.57-2.23-.88-3.19l-.89-3.2-.72-3.45-.05-7.68-.37-4.58-1.92-9.96-2.37-8.3-4.65-13.84-6.22-22.17s0,0,0,0l-6.82-29.01-2.31-10.13-1-2.15-.61-3.55h0c-.13-3.9-.29-7.82-.51-11.66l-.35-8.09-.68-5.62c-.24-2.42-.52-4.71-.82-6.82l-.46-3.85-.05-.29-2.38-56.11,.09-1.55,.52-1.32c3.49,1.13,7.09,2.59,6.69-2.45-.57-7.19-1.33-23.11-13.07-32.01-11.75-8.91-13.26-20.08-24.63-25.77-11.37-5.68-37.89-8.53-40.55-7.96h-6.82s-14.78,1.14-20.65,9.28c-5.76,7.99-6.59,8.51-4.12,11.39,3.52,7.07,5.63,32.48,5.63,32.48,.1,1.42-.4,4.33-4.28,9.06-4.6,5.6-6.35,8.04-6,15.2h0s-.78,1.06-.78,1.06l-.04-.09s-.38,.56-.99,1.5h0s0,0,0,0c-.99,1.52-2.6,4.05-4.24,6.81,0,0,0,0,0,0-.37,.44-1.2,1.96-2.04,3.57-.86,1.57-1.65,3.11-2.27,4.49h0s-1.4,2.54-1.32,4.34c0,.21,.05,.44,.12,.68,0,.02,.01,.04,.02,.05,.03,.08,.05,.16,.08,.25,.58,1.6,2.11,3.29,2.11,3.29-1.84,25.87-15.78,41.58-15.78,41.58v3.03c-6.82,29.94-29.37,64.23-37.71,77.68-8.34,13.45-18.76,11.18-19.33,17.05s-32.4,27.09-32.78,28.82c-.38,1.73-14.4,14.28-18.57,14.95-4.17,.66-34.11,18.95-40.74,25.67s-47.18,24.63-47.18,24.63c0,0-5.78,1.33-6.73,3.88-.95,2.56-2.18-.47-3.79-.47s-5.31,3.6-5.31,3.6c6.73,2.08-8.34,3.69-8.34,3.69l-11.82,9.71,.93,.46,5.63-1.61,6.52-.4,5.59,1.72,8.18,4.42,8.57,4.07,10.77,5.44,6.24,5.15,3.74,4.95,2.81,3.86,2.3,2.21c7.01,5.31,7.77,20.56,7.77,20.56l2.84,4.83,3.22-4.36,2.87,3.09s8.59-8.08,11.37-3.54c2.78,4.55-7.83,14.4-7.83,14.4l9.35,5.05c9.35,5.05,3.28,8.34,3.28,8.34l5.31,2.27c5.31,2.27,13.14-3.79,20.97,2.53,7.83,6.32,8.84,3.28,12.38,2.78,3.54-.51-3.03-6.57,23.49-13.14,26.53-6.57,45.73,11.62,45.73,11.62l8.34-3.28,.51-8.84c.51-8.84,25.52-52.55,40.17-72.25,14.65-19.71,35.37-57.35,35.37-57.35,0,0,22.15-30.37,29.89-28.57h0c6.07,18.34,10.31,43.62,16.34,91.23,9.19,72.58-3.39,94.65-4.47,96.39,.57-.89,4.38-6.57,4.85-1.9,.51,5.05-4.17,15.79-6.69,18.32s-1.77,2.65-1.77,2.65c2.65,4.67,2.02,4.67-2.27,9.47-3.72,4.16-5.35,4.33-5.72,4.31l5.09,.75s-.76-1.26,16.29-1.64c17.05-.38,12.76-3.54,18.44-4.93,5.68-1.39,10.86-17.18,13.89-22.74,3.03-5.56,13.26-5.56,13.26-5.56v-10.11l3.03,9.6s10.99-2.53,14.55-7.07c1.48-1.88,2.89-2.94,4.32-3.7l.27,.07,2.94-1.32,2.34-1.1,1.64-1.15,.84-1.73v-1.52l-.35-1.32Zm-293.2-60.68l-1.89,5.49-4.93,2.75-7.64-.85,3.28-4.36h3.03v-4.17l15.54-3.6-7.39,4.74ZM501.4,120.04s.19,3.03-6.82-9.81c-7.01-12.84-6.06-27.14-6.06-27.14,0,0,1.89-11.56,12.13-10.23l16.67,4.93c-6.82,35.81-15.92,42.25-15.92,42.25Z"/>
      </g>
      <g id="Capa_6" data-name="Capa 6">
        <path class="cls-34" d="M553.02,101.19l-13.06-19.74-18.03-18.36s-20.8-8.27-32.56-9.18c-11.76-.9-29.34,8.34-34.39,28.42-5.05,20.08,7.58,43.18,13.26,57.22,5.68,14.04,26.09,33.84,34.11,39.47,8.01,5.63,10.99,3.37,10.99,3.37l2.08-.59s2.53-.32,3.73,1.04c1.2,1.36,4.45-9.09,10.29-27.19s16.96-36.66,16.96-36.66l6.61,2.46,3.27-3.89-3.27-16.38Zm-37.49-12.66c.42,9.35-14.06,31.83-14.06,31.83l-4.02-5.06-8.08-21.21s-.75-5.4-.85-10.23c-.1-4.83,.82-5.68,7.51-10.63,6.69-4.95,21.29,4.57,21.29,4.57l-1.79,10.74Z"/>
      </g>
      <g id="Capa_2-2" data-name="Capa 2">
        <path class="cls-6" d="M450.4,103.81c1.77,6.23-5.95,11.85-8.15,17.01-1.33,2.74-1.33,5.87-1.07,8.99,1,9.48,3.39,18.77,5.79,28,2.54,9.12,5.07,18.43,8.88,27.06,3.92,8.43,8.17,17.8,11.68,26.35,0,0,7.28,17.74,7.28,17.74,2.56,5.78,4.56,11.97,8.01,17.27,0,0-.34,.37-.34,.37-4.7-4.52-7.6-10.55-10.84-16.12-6.13-11.31-11.56-22.97-16.31-34.92-2.1-5.36-5.25-12.79-6.68-18.24-1.84-6.21-3.39-12.46-4.83-18.73-2.06-9.44-4.15-18.95-4.65-28.66-.12-3.29,.07-6.83,1.7-9.8,2.48-5.16,10.17-10.08,9.1-16.08,0,0,.43-.25,.43-.25h0Z"/>
        <path class="cls-6" d="M502.23,211.4c-7.19-3.63-13.38-9.02-18.8-14.93-2.65-3.03-5.62-5.93-7.42-9.59-1.89-3.59-3.3-7.45-3.82-11.59l.45-.22c2.94,2.83,5.19,5.99,7.61,9.16,2.32,3.1,4.06,6.56,6.28,9.73,2.3,3.12,4.71,6.18,7.36,9.02,2.61,2.89,5.46,5.61,8.58,7.99l-.25,.44h0Z"/>
        <path class="cls-6" d="M469.59,52.08c-7.77,1.14-16.45,3.7-20.84,10.69-1.31,2.08-3.36,4.41-4.16,6.68-.33,1.1,.64,1.81,1.29,2.63,5.87,7.92,8.8,17.69,10.62,27.26,1.38,7.03,3.77,13.95,6.23,20.71,5.11,13.39,10.61,26.86,19.42,38.23,4.33,5.66,9.54,10.61,15.09,15.07,4.25,3.17,8.37,7.04,13.19,9.12,1.54,.72,2.71-.89,4.25-.91,0,0,.73,0,.73,0v.5l-.63,.12c-1.37,.4-2.26,1.89-3.88,1.8-2.28-.13-4.29-1.2-6.17-2.11-9.92-5.29-19.17-11.73-26.48-20.44-5.53-6.39-9.49-14.09-12.66-21.83-3.84-9.42-7.12-19.03-9.88-28.82-.97-3.57-1.86-7.17-2.43-10.91-1.4-9.18-3.95-18.57-9.1-26.36-.63-.81-1.38-1.6-1.65-2.74-.44-1.64,.74-3.36,1.54-4.55,.89-1.42,2.35-3.06,3.3-4.43,4.91-7.12,13.99-9.47,22.15-10.21,0,0,.04,.5,.04,.5h0Z"/>
        <path class="cls-6" d="M505.88,176.83c9.68,.44,11.39-10.47,13.27-17.86,2.83-10.04,5.83-20.45,11.93-29.17,2.7-3.24,5.03-6.83,8.17-9.77,3.28-3.09,6.27-2.68,10.2-1.28,1.16,.33,2.39,.8,3.31,.58-.01-.03-.05,.07,.03-.14,.13-.31,.08-1.18,.04-1.61-.81-10.04-2.69-20.82-10.22-27.97-1.17-1.24-3.39-2.72-4.71-3.84-3.38-2.84-6.26-6.25-8.72-9.7-4.16-5.84-7.63-11.6-14.12-14.62-8.28-3.82-17.46-5.67-26.41-7.53-4.02-.73-8.14-1.66-12.22-1.85,0,0-.1-.49-.1-.49,2.17-.36,4.24-.27,6.35-.25,10.57,.4,21.05,1.59,31.22,4.79,4.26,1.36,8.34,3.66,11.53,6.81,6.06,6.1,9.43,13.59,15.71,19.09,2.41,2.06,5.13,4.23,6.98,6.83,6.1,7.86,7.75,18.11,8.25,27.67,.04,.96,.26,2.25-.24,3.81-1.82,4.67-7.37,1.5-10.55,.71-1.68-.53-2.99,.2-4.34,1.31-2.09,1.78-4.23,4.56-6.06,6.76-1.98,2.19-3.89,4.73-5.3,7.39-3.93,7.17-6.84,14.99-9.26,22.9-2.07,6.82-4.13,17.65-13.12,17.9-.52,.02-1.1-.04-1.5,.02l-.14-.48h0Z"/>
        <path class="cls-6" d="M476.54,69.46c-7.86,7.37-15.67,17.11-15.01,28.37,.58,5.55,2.28,10.93,3.37,16.42,1.02,4.98,2.56,11.86,3.28,16.88,0,0-.46,.2-.46,.2-1.76-2.4-3.17-4.98-4.42-7.62-3.94-7.98-5.71-16.76-5.76-25.65-.07-6.25,2.51-12.06,6.1-16.94,3.54-4.69,7.8-8.74,12.61-12.05,0,0,.3,.4,.3,.4h0Z"/>
        <path class="cls-6" d="M488.52,89.54c2.18,11.03,6.93,21.45,13.26,30.69,0,0-1.8-.43-1.8-.43,.5-.43,1.07-.75,1.67-1.02,0,0-.51,.47-.51,.47,7.22-11.07,13.61-23.48,14.4-36.9,1.27,13.75-4.94,27.39-12.13,38.76-.67,.41-1.33,.86-2.09,1.09,0,0-1.32,.33-1.32,.33l-.48-.77c-6.15-9.62-10.47-20.74-10.99-32.22h0Z"/>
        <path class="cls-6" d="M502.21,168.18c-6.19-3.57-11.88-8.03-16.89-13.15-2.51-2.62-5.21-5.21-6.83-8.54-1.58-3.34-2.66-7.05-2.34-10.85l.48-.13c2.33,2.96,4.19,5.68,6.15,8.42,2.07,2.69,3.53,5.77,5.58,8.5,2.1,2.73,4.32,5.41,6.68,7.94,2.34,2.59,4.85,5.04,7.45,7.4l-.28,.41h0Z"/>
        <path class="cls-6" d="M500.45,164.53c-5.21-5.64-9.69-11.96-13.39-18.69-.88-1.72-1.89-3.4-2.73-5.17-2.57-5.33-3.44-11.62-1.93-17.39,0,0,.5-.03,.5-.03,1.62,3.54,2.86,6.9,4.24,10.44,1.44,3.39,2.18,7.01,3.54,10.45,1.43,3.44,2.96,6.87,4.67,10.19,1.67,3.37,3.53,6.66,5.5,9.9l-.39,.31h0Z"/>
        <path class="cls-6" d="M502.2,159.27c-.27-.27-.56-.77-.76-1.09-3.15-5.29-5.79-10.86-8.31-16.47-3.98-9.09-7.31-18.65-8.42-28.58-.89-6.46-1.71-12.8-1.95-19.38-.02-3.33-.05-7.12,1.94-9.99,0,0,.46,.2,.46,.2-.53,3.2,.41,6.23,1.09,9.34,1.59,6.31,3.17,12.81,3.39,19.39,.06,3.1,.23,6.45,.79,9.5,2.41,12.26,6.62,24.23,11.58,35.7,0,0,.26,.55,.26,.55,.09,.19,.16,.29,.24,.45l-.3,.4h0Z"/>
        <path class="cls-6" d="M520.79,83.87c-.03,9.01-1.41,18.01-4.26,26.6-1.46,4.35-2.97,8.83-5.86,12.5-2.86,3.67-6.56,6.9-11.01,8.45l-.29-.4c1.34-1.89,2.62-3.65,3.82-5.42,4.43-7.3,9.27-14.41,12.04-22.63,2.27-6.2,3.95-12.6,5.07-19.13,0,0,.5,.03,.5,.03h0Z"/>
        <path class="cls-6" d="M505.32,155.63c.65-6.52,1.76-12.95,3.39-19.31,1.52-5.53,3.5-11.57,7.54-15.87,4.09-5.49,4.78-12.87,6.18-19.47,.79-4.61,1.52-9.3,1.35-13.99-.07-1.55-.24-3.09-.96-4.48l.36-.35c1.43,1.04,2.24,2.74,2.84,4.36,3.43,11.42,1.21,24.33-5.19,34.32-1.92,2.69-4.42,4.55-5.87,7.56-4.55,8.43-6.97,17.94-9.14,27.3,0,0-.49-.07-.49-.07h0Z"/>
        <path class="cls-6" d="M530.97,91.65c4.31,4.68,15.96,17.48,10.85,24.11-3.27,3.84-7.99,5.83-12.1,8.45-.68,.46-1.3,.94-1.73,1.72l-.5-.03c-.7-3.79,3.47-7.32,5.88-9.61,1.59-1.41,3.24-2.56,4.96-3.69,.15-.07,.28-.13,.37-.3,.21-.3,.31-.94,.28-1.64-.26-3.12-1.83-6.48-3.22-9.4-1.51-3.17-3.32-6.24-5.18-9.28l.39-.31h0Z"/>
        <path class="cls-6" d="M547.51,121.01c-.48,18.02-.62,36.29,2.99,53.98,.31,1.41,1.05,4.86,1.33,6.22,.56,3.24,1.12,7.22,1.52,10.51,1.1,9.75,1.99,19.62,1.91,29.44-.08,11.24-.53,22.45-2.07,33.6,0,0-.5,0-.5,0-1.25-11.15-1.81-22.3-2.43-33.47-.76-13.2-.38-26.4-2.11-39.48-.21-1.31-.8-4.78-1.03-6.13-2.14-12.55-1.99-25.3-1.41-37.95,.27-5.6,.69-11.18,1.29-16.76l.5,.04h0Z"/>
        <path class="cls-6" d="M554.26,220.85c6.48,21.21,11.54,42.89,18.32,63.96,1.81,5.23,3.65,10.62,4.99,16.04,1.35,5.47,2.38,11.1,2.51,16.83,.13,2.72-.37,5.59-.24,8.31,.09,2.73,1.07,5.24,1.82,7.89,1.17,3.95,1.4,8.48,1.49,12.58,.48,6.91,2.06,13.66,3.16,20.54,8.71,48.2,2.85,92.75-9.73,139.6,.58-16.74,1.08-37.16,2.28-53.63,.81-10.03,1.33-20.17,3.57-30.01,0,0,.49,.11,.49,.11-.56,4.95-.62,9.97-.69,14.98-.16,10.46-.06,34.42-.06,45.12,0,0-4.74-.59-4.74-.59,2.24-10.73,3.93-21.71,5.41-32.63,1.82-13.68,3.01-27.43,3.22-41.23,.06-8.08,.07-16.87-.31-24.88-.43-11.13-2.12-22.04-3.72-33.08-.71-5.35-.27-11.2-2.15-16.34-1.15-3.32-2.55-6.79-2.51-10.41,.11-4.76-.46-9.53-1.59-14.17-1.78-7.76-4.84-16.03-7.46-23.58-3.49-10.77-5.99-21.58-8.4-32.47-2.37-10.88-4.49-21.81-6.17-32.84l.49-.11h0Z"/>
        <path class="cls-6" d="M575.36,419.1c.09,13.21-.08,27.87,.86,40.96,.4,4.35,1.85,8.78,3.07,12.91,0,0-3.66,.51-3.66,.51,.38-15.9-.43-33.46,3.98-48.86,.92-2.55,2.06-4.91,2.78-7.48,.8-2.53,.76-5.06,.31-7.7,0,0,.48-.15,.48-.15,2.45,4.45,1.69,9.75,.43,14.44-1.42,5.68-1.35,11.83-1.81,17.65-1,14.29-2.43,29.32-3.08,43.69-1.93-7.6-5.15-17.06-5.55-24.82-.3-13.79,.75-27.46,1.69-41.18,0,0,.5,.02,.5,.02h0Z"/>
        <path class="cls-6" d="M588.5,430.84c.61,15.85,.89,31.82,2.91,47.56,.45,5.07,4.91,8.73,5.23,13.92,.11,1.4-.57,2.96-1.86,3.75,0,0-.66,.4-.66,.4-3.43,1.81-7.41,2.83-9.69,6.19-4,4.43-10.11,6.09-15.69,7.62,0,0-.24-.75-.24-.75l-3.09-9.58,1.75-.27,.06,10.11v.92c-3.37,.06-6.99,.58-9.96,2.1-3.03,1.39-3.98,4.25-5.24,7.1-1.96,4.49-3.82,9.12-6.38,13.36-1.58,2.53-3.58,5.44-6.78,6.15-1.91,.5-3.17,2.35-5.09,3.08-3.26,1.32-6.64,1.44-10.04,1.7-6.06,.33-12.06,.14-17.99,1.27-.15,.04-.33,.09-.42,.13-.08,.02-.06,.03-.07,.02,.53-.4,.64-1.07,.3-1.68,0,0-1.4,2.09-1.4,2.09l-5.18-.73,.65-2.75c-.36-.09-.22-.05-.33-.06,2.45-1.05,4.01-3.32,5.87-5.27,.72-.79,1.99-2.12,2.18-3.01,.07-1.02-.88-2.32-1.39-3.34,0,0,1.06,.74,1.06,.74-.07-.01-.13-.03-.19-.05-1.03-.31-1.42-1.53-.99-2.43,.57-1.25,1.53-2.04,2.39-3.03,2.14-2.85,3.58-6.51,4.73-9.93,.7-2.3,1.55-5.4,1.05-7.52,.03,.03,.17,.2,.38,.26,.2,.08,.39,.04,.42,.04,.06-.02,.02,0-.02,.02-1.01,.72-1.84,1.95-2.59,3.08,0,0-2.75-1.8-2.75-1.8,.4-.67,.87-1.64,1.24-2.54,.75-1.79,1.45-3.89,1.95-5.76,3.55-13.03,4.09-26.63,4.17-40.09-.51-33.41-6.11-66.73-11.39-99.66-2.9-16.44-6.25-32.88-12.68-48.01-6.39-15.04-16.85-29.09-25.01-43.26-10.74-18.2-20.04-37.97-22.54-59.2-.54-3.79-.49-5.99-.75-9.57-.36-13.37-2.58-27.03-9.28-38.75-1.02-1.79-2.14-3.53-3.33-5.23l-1.83-2.55c-1.35-1.93-2.99-3.86-2.02-6.36,.97-3.05,2.64-5.88,4.23-8.62,2.16-3.62,4.49-7.13,6.9-10.57l.42,.28c-3.52,5.77-7.16,11.59-9.64,17.88-.33,.84-.62,1.9-.64,2.75,.63,2.28,2.7,4,4.11,6.07,1.29,1.68,2.53,3.43,3.66,5.24,6.81,10.92,9.61,23.88,10.61,36.54,.45,8.26,1.56,16.53,3.69,24.52,6.27,24.38,20.63,45.32,33.97,66.36,9.34,14.13,16.4,30.21,20.05,46.79,5.75,24.66,8.56,49.85,11.75,74.88,3.32,28.11,7.08,71.24-3.35,97.64-.46,1.07-.93,2.07-1.57,3.09,0,0-2.75-1.8-2.75-1.8,1.21-1.68,2.44-3.8,4.64-4.51,.34-.09,.87-.12,1.38,.05,.86,.31,1.34,.99,1.59,1.69,.91,3.33-.18,6.51-1.08,9.6-1.45,4.04-2.96,8.03-5.81,11.38-.52,.53-1.14,1.14-1.52,1.75,.13-.43-.02-.96-.4-1.29-.19-.17-.44-.29-.7-.33l1.06,.74c.38,.7,.77,1.38,1.13,2.18,.33,.78,.75,1.78,.58,3.05-.21,1.25-.85,2.08-1.36,2.74-2.47,2.74-4.69,5.77-8.04,7.57-.65,.25-1.34,.57-2.16,.32,0,0,.65-2.75,.65-2.75l5.18,.78-1.4,2.09c-.36-.62-.21-1.29,.22-1.78,.48-.48,1.11-.65,1.68-.8,7.68-1.47,15.6-.64,23.3-1.57,2.31-.34,4.42-.66,6.21-2.11,.87-.77,2.29-1.71,3.56-2.01,0,0,.66-.19,.66-.19l.41-.13c1.94-.92,3.24-2.88,4.45-4.73,2.54-4.11,4.39-8.57,6.4-13,1.28-3.07,3.01-6.68,6.28-8.04,3.14-1.53,6.48-2.08,9.93-2.17,0,0-.96,.96-.96,.96,.04-3.78,.07-12.27,.1-15.93,1.1,3.51,3.58,11.61,4.69,15.18,0,0-.98-.56-.98-.56,5.54-1.47,11.57-3.19,15.19-7.88,2.4-2.8,6.07-3.62,9.16-5.26,0,0,.62-.36,.62-.36l.48-.38c2.36-2.55-1.05-7.62-2.29-10.24,0,0-.71-1.31-.71-1.31-.81-1.34-.98-2.99-1.22-4.48-1.03-7.93-1.3-15.88-1.67-23.85-.31-7.95-.53-15.91-.67-23.86h.5Z"/>
        <path class="cls-6" d="M556.31,483.05c5.72-19.32,11.93-38.86,14.39-58.86,.35-3.53,.25-7.07,.39-10.64,.43-12.03,2.58-23.88,5.04-35.63,.49-2.34,1.06-4.69,1.39-7l.5-.05c.89,7.23,.1,14.45-.21,21.68-.72,10.67-1.65,21.57-2.92,32.16-2.68,15.52-7.72,30.35-12.99,45.07-1.63,4.51-3.32,8.98-5.11,13.43l-.47-.17h0Z"/>
        <path class="cls-6" d="M554.97,461.6c5.94-25.24,12.37-50.53,14.8-76.36,.18-2.87,.3-5.71-.13-8.47-.86-4.13-1.27-8.36-1.45-12.54-.59-17.71,.35-35.43-1.29-53.03-.52-5.63-1.57-11.56-3.09-17-4.36-18.56-7.16-37.31-8.85-56.26,0,0,.49-.08,.49-.08,4.42,18.42,8.25,36.98,13.19,55.07,.72,2.56,1.75,6.18,2.21,8.78,2.8,15.95,1.42,32.29,1.11,48.3-.14,7.03-.41,14.08,.2,21.06,.11,1.72,.49,3.49,.72,5.18,.41,3.09,.2,6.23-.07,9.23-1.76,16.56-5.89,32.74-9.9,48.85-2.34,9.18-4.83,18.31-7.48,27.4l-.48-.13h0Z"/>
        <path class="cls-6" d="M551.86,262.32c2.92,35.1,5.75,70.24,6.19,105.48-.25,7.88-1.46,17.21-2.25,25.11-1.13,10-2.28,19.97-3.95,29.92,0,0-.5-.03-.5-.03-.66-16.79-.11-33.58,1.26-50.31,.18-2.45,.42-7.37,.49-9.83,.61-20.02-.07-40.11-.58-60.15-.31-13.39-.77-26.77-1.17-40.16l.5-.03h0Z"/>
        <path class="cls-6" d="M536.1,262.15c.2-.58,.39-1.88,.49-2.52,1.79-13.57,2.78-27.23,3.83-40.87,.49-7.26,.51-14.56,1.26-21.8,0,0,2.29-21.75,2.29-21.75l.5-.05c2.83,10.76,2.61,22.11,1.41,33.08-.89,6.46-2.05,15.47-3,21.81-1.67,10.4-3.28,20.85-5.88,31.07-.14,.37-.24,1.01-.57,1.41,0,0-.33-.38-.33-.38h0Z"/>
        <path class="cls-6" d="M532.99,220.88c-.12-6.46-.38-15.8-.57-22.35-.13-3.69-.75-7.36-.5-11.05,.19-3.69,.56-7.25,1.07-11.11l.48-.13c.54,.82,1.04,1.73,1.42,2.64,1.75,4.45,2.47,9.35,2.07,14.11-.39,3.75-.69,7.49-1.07,11.24-.63,5.41-1.42,11.36-2.41,16.69,0,0-.5-.04-.5-.04h0Z"/>
        <path class="cls-6" d="M542.08,181.24c-.78-7.64-1.64-15.26-2.62-22.87-.5-3.76-1.5-7.46-1.68-11.25-.23-3.79-.3-7.45-.41-11.44l.46-.2c.66,.76,1.3,1.61,1.81,2.5,2.37,4.34,3.66,9.31,3.77,14.25,.01,3.9,.09,7.77,.07,11.65-.1,5.8-.36,11.59-.9,17.36,0,0-.5,0-.5,0h0Z"/>
        <path class="cls-6" d="M543.52,125.2c-.52,7.95-.19,15.92,1.02,23.78,.32,1.95,.8,3.8,1.31,5.74,1.03,3.97,1.33,8.06,1.09,12.16-.14,2.07-.36,4.16-1.14,6.23l-.5-.05c-1.95-5.82-3.72-11.44-4.32-17.48-.78-8.15-.72-16.45,.77-24.52,.34-2,.74-3.99,1.28-5.95l.49,.09h0Z"/>
        <path class="cls-6" d="M513.34,201.83c10.42-2.64,12.08-16.55,13.23-25.55,1.19-10.47,.75-21.8,7.07-30.94,0,0,.47,.18,.47,.18-.27,2.72-.52,5.29-.65,7.86-.23,5.2-.24,10.54-1.29,15.71-.52,2.62-1.11,5.23-1.64,7.84-1.09,5.29-2.28,10.67-4.83,15.48-2.46,4.71-6.63,9.68-12.34,9.93,0,0,0-.5,0-.5h0Z"/>
        <path class="cls-6" d="M517.44,181.02c3.37,1.16,4.6-2.72,4.66-5.44,.11-3.22,.19-6.52,.64-9.72,.33-2.85,.61-7,1.67-9.67,1.13-3.07,2.52-6.07,4.79-8.76l.48,.15c.38,3.47,.05,6.68-.43,9.85-.43,3.17-1.79,6.11-2.59,9.18-.87,3.12-1.41,6.24-2.11,9.4-.71,2.47-1.91,5.62-4.79,6.08-.95,.11-1.83-.16-2.58-.63l.25-.44h0Z"/>
        <path class="cls-6" d="M525.31,306.87c1.49-2.66,2.39-5.56,3.21-8.47,.4-1.42,.28-3.01,1.09-4.31,.86-1.48,1.82-2.71,3.38-3.76,0,0,.49,.11,.49,.11,.98,1.83,1.08,3.54,.89,5.19-.16,1.67-1.33,2.99-2.18,4.38-1.71,2.78-3.77,5.44-6.54,7.24,0,0-.34-.37-.34-.37h0Z"/>
        <path class="cls-6" d="M536.16,306.83c2.08-1.71,3.21-4.48,4.08-6.99,1.18-3.5,1.88-7.73,2.29-11.41,.52-4.43,.76-8.91,.57-13.38-.03-6.83,.54-13.59,2.21-20.28,0,0,.5-.02,.5-.02,3.07,8.94,3,18.26,1.26,27.42-.73,4.56-1.59,9.12-3.15,13.53-.8,2.15-1.7,4.4-2.87,6.38-1.17,2-2.52,4.02-4.69,5.21l-.21-.45h0Z"/>
        <path class="cls-6" d="M499,323.54c-5.23-.53-12.94,8.53-16.45,12.19-4.7,5.24-9.09,10.74-13.27,16.4-6.37,11.51-13.08,23.12-20.02,34.4-6.89,11.6-14.67,21.97-22.21,33.04-10.83,16.65-21.06,33.81-29.46,51.82-1.56,3.74-3.53,7.53-3.6,11.65,0,0-.14,2.48-.14,2.48l-.27,4.97-.02,.3-.28,.11-8.33,3.3-.28,.11c-11.06-9.66-26.33-14.7-40.95-12.53-7.11,1.34-14.4,3.24-20.82,6.68-2.06,1.19-4.07,2.66-5,4.76-.35,.81-.71,2.25-1.84,2.54-1.65,.28-2.73,.92-4.56,1.24-1.39,.17-2.75-.25-3.9-.8-2.25-1.06-4.14-2.78-6.17-4.17-4.17-2.77-9.25-1.8-13.94-1.06-1.85,.27-4,.29-5.78-.5-1.04-.43-4-1.72-5.1-2.18,0,0-1.17-.5-1.17-.5,.97-.54,2.26-1.26,2.59-2.35,.68-2.33-2.7-4.29-4.4-5.29-2.76-1.53-6.89-3.71-9.71-5.25,0,0-.82-.44-.82-.44l.68-.66c3.21-3.34,7.38-7.28,8.05-12.03-.62-6.23-9,.59-11.17,2.68,0,0-.49-.52-.49-.52l-2.88-3.09,1.12-.06-3.21,4.36-.66,.9-.57-.96-2.85-4.83-.09-.15v-.19c-.66-6.63-1.85-13.98-6.48-19.06-.55-.49-1.68-1.47-2.26-1.94-3.06-2.78-4.7-6.59-7.38-9.59-1.29-1.46-2.74-2.77-4.28-3.97-4.75-3.6-10.42-5.8-15.8-8.27-3.65-1.68-7.28-3.47-10.8-5.46-1.77-.99-3.44-1.99-5.25-2.59-5.58-2-11.59-.15-16.99,1.71,0,0-4.17,1.54-4.17,1.54l3.23-3.03c3.11-2.9,6.23-5.76,9.58-8.4,1.22-.91,2.45-1.97,3.95-2.43,2.98-.41,6.33-.72,9.09-1.83,.16-.07,.36-.24,.27-.15-.04,.04-.13,.3-.04,.49,.02,.06,.02,.08,.05,.11-.16-.13-.7-.35-1.15-.49,0,0-1.54-.49-1.54-.49,1.65-1.52,3.12-3.05,5.08-4.25,2.32-1.43,3.19-.5,4.96,.76,0-.01-.25,.02-.26,.06-.02,.02,.05-.07,.1-.17,.07-.16,.08-.2,.23-.51,1.48-2.67,4.63-3.49,7.31-4.28,12.45-5.69,26.89-12.22,39.39-19.37,2.48-1.49,5.09-2.99,7.09-4.83,2.18-2.12,4.59-3.9,6.98-5.65,7.22-5.18,14.72-9.91,22.38-14.4,3.54-2.04,7.11-4.12,10.91-5.72,.97-.28,2.01-.52,2.99-1.07,3.14-1.75,5.95-4.06,8.74-6.37,2.54-2.24,5.23-4.41,7.26-7.07,.05-.07,.01-.04,.02-.02,0,.03,.01-.02,.04-.09l.08-.17c.05-.11,.12-.22,.19-.32,1.69-1.8,3.44-2.89,5.3-4.38,6.78-5.08,14.49-10.76,20.85-16.28,2.1-1.9,4.37-3.88,5.91-6.2,.39-.58,.55-1.11,.63-1.8,.44-2.54,3.23-3.89,5.19-4.82,2.68-1.25,5.24-2.55,7.49-4.33,2.26-1.76,4.21-3.91,5.85-6.28,3.16-4.9,6.31-9.94,9.39-14.93,9.2-15.05,17.78-30.56,24.16-47.03,2.07-5.5,3.86-11.1,5.27-16.8v.09s0-3.03,0-3.03c8.12-10.29,13.48-22.96,15.42-36,.31-1.85,.43-3.73,.66-5.59h.2c-.8,11.3-3.9,22.43-9.34,32.38-1.81,3.32-3.82,6.52-6.25,9.47l.1-.26,.02,3.03c-6.94,28.9-22.87,54.53-38.43,79.5-1.69,2.49-3.73,4.77-6.12,6.65-2.36,1.9-5.1,3.31-7.74,4.56-1.3,.64-2.63,1.28-3.48,2.18-.79,.75-.79,1.75-1.06,2.74-1.5,3.2-4.28,5.4-6.76,7.75-6.4,5.64-14.03,11.31-20.84,16.5-1.43,1.08-4.06,3.2-4.88,3.95-.27,.8-.84,1.36-1.35,1.96-4.16,4.39-8.63,8.21-13.63,11.61-1.66,1.12-3.17,1.86-5.2,2.36,0,0-.97,.42-.97,.42-11.14,5.48-21.69,12.32-31.85,19.44-2.36,1.73-4.7,3.47-6.76,5.47-2.36,2.15-4.92,3.57-7.48,5.12-12.92,7.31-26.42,13.53-39.95,19.57-2.27,.68-5.34,1.39-6.25,3.75-.15,.25-.28,.51-.61,.79-.29,.29-1,.45-1.37,.32-.81-.23-1.07-.58-1.41-.81-.31-.25-.59-.46-.81-.56-.24-.1-.25-.1-.49-.04-.24,.06-.56,.24-.86,.41-1.24,.76-2.46,1.81-3.58,2.86l-.38-1.59c.55,.22,1.47,.44,2.03,1.08,.89,1.04-.03,2.11-.88,2.47-3.09,1.26-6.69,1.58-9.58,1.96-1.16,.48-2.15,1.3-3.16,2.06-3.29,2.58-6.41,5.41-9.47,8.26,0,0-.95-1.49-.95-1.49,17.74-6.39,19.43-.1,34.4,6.49,7.33,3.34,15.21,6.44,20.58,12.71,2.76,3.11,4.4,6.92,7.23,9.48,.58,.48,1.74,1.48,2.3,1.99,4.74,4.91,6.63,14.53,6.76,19.75,0,0,2.84,4.84,2.84,4.84l-1.23-.06c.51-.69,3.39-4.57,3.75-5.06,0,0,.6,.65,.6,.65l2.87,3.1-1.03-.03c1.96-1.75,4.02-3.34,6.5-4.43,3.04-1.52,6.6-.41,6.53,3.33-.2,2.83-1.78,5.05-3.34,7.23-1.57,2.08-3.31,3.97-5.19,5.77l-.14-1.1c2.86,1.56,6.9,3.72,9.72,5.29,1.17,.63,2.55,1.59,3.51,2.51,2.3,2.1,2.22,5.17-.61,6.77,0,0-.05-1.17-.05-1.17l3.39,1.46c.92,.37,2.32,1.1,3.31,1.2,4.88,.48,9.8-1.87,14.72-.33,4.7,1,7.87,6.56,12.79,6.38,1.07-.11,2.17-.71,3.48-1.01,.77-.15,1.08-.15,1.28-.48,.24-.35,.43-1.01,.7-1.59,2.35-4.67,7.79-6.52,12.35-8.29,9.33-3.3,19.38-5.34,29.26-3.61,9.83,1.62,19.12,6.05,26.66,12.57,0,0-.51-.1-.51-.1l8.34-3.27-.3,.41,.29-4.97,.15-2.48c.09-4.26,2.11-8.13,3.73-11.95,8.5-18.04,18.79-35.17,29.72-51.82,7.55-11,15.44-21.45,22.32-32.95,7-11.28,13.68-22.76,20.16-34.34,4.21-5.65,8.63-11.14,13.36-16.37,3.59-3.86,7.24-7.78,11.69-10.67,1.48-.9,3.17-1.82,5.01-1.53l-.05,.19h0Z"/>
        <path class="cls-6" d="M287.85,482.93c46.4-23.33,72.86-72.56,87.6-120.43,2.27-7.83,4.65-16.73,6.42-24.66,2.88-12.92,6.55-28.64,9.67-41.59,3.57-15.39,8.78-34.44,11.91-49.85,0,0,.5,.03,.5,.03-.25,5.75-1.27,11.37-2.06,17.05-4.38,26.76-9.63,53.39-16.09,79.72-9.24,34.55-23.15,68.43-45.12,96.91-10.64,13.49-23.04,25.74-37.52,35.06-4.76,3.11-9.88,5.78-15.03,8.16,0,0-.29-.41-.29-.41h0Z"/>
        <path class="cls-6" d="M292.93,473.32c10.67-7.01,20.31-15.55,28.9-24.94,3.23-3.49,6.01-7.33,8.93-11.06,5.1-6.17,9.62-12.4,14.87-18.71,0,0,.45,.23,.45,.23-.44,1.58-.99,3.12-1.55,4.67-2.31,6.1-5.65,11.92-9.68,17.04-6.24,7.49-13.6,14.14-21.22,20.21-3.73,2.85-8.01,5.85-11.99,8.29-2.75,1.7-5.56,3.31-8.47,4.72l-.24-.44h0Z"/>
        <path class="cls-6" d="M435.78,329.33c-7.58,41.01-23.5,84.23-53.32,114.37-10.18,9.36-22.03,18.34-32.92,26.87-6.4,4.92-12.86,9.77-19.5,14.41l-.32-.38c8.57-8.59,17.51-16.75,26.53-24.84,8.59-7.89,18.72-15.74,26.94-23.9,22.5-22.87,36.06-53.05,45.85-83.3,2.38-7.68,4.56-15.45,6.24-23.32l.49,.09h0Z"/>
        <path class="cls-6" d="M459.74,320.74c-1.73,13.26-4.1,26.45-7.22,39.47-2.2,9.89-4.78,19.82-10.23,28.51-1.79,2.9-3.87,5.76-6.56,7.93l-.38-.32c1.52-3.01,2.66-6.05,3.78-9.13,2.19-6.19,3.99-12.5,6.29-18.67,2.34-6.2,4.28-12.55,6.1-18.93,2.8-9.59,5.35-19.24,7.74-28.95,0,0,.49,.09,.49,.09h0Z"/>
        <path class="cls-6" d="M361.12,468.52c12.53-9.31,24.15-19.98,34.06-32.05,2.05-2.62,4.21-5.55,6.16-8.26,5.32-6.85,9.92-13.82,14.75-21.28,0,0,.47,.18,.47,.18-1.34,7.04-4.27,13.69-7.99,19.8-5.79,9.03-13.67,16.38-21.53,23.51-5.29,4.65-10.91,8.93-16.73,12.89-2.89,2-5.86,3.88-8.92,5.62l-.26-.42h0Z"/>
        <path class="cls-6" d="M396.36,254.83c-4.09,16.37-9.87,32.26-17.27,47.44-7.17,15.14-17.23,30.74-33.11,37.84,0,0-.27-.42-.27-.42,6.24-5.69,11.49-11.9,16.22-18.63,4.74-6.73,9.55-13.46,13.62-20.66,8.17-14.52,14.81-29.96,20.33-45.71,0,0,.48,.13,.48,.13h0Z"/>
        <path class="cls-6" d="M287.99,437.03c2.49-.1,4.97-.02,7.44,.11,0,0-.43,.08-.43,.08,1.68-1.02,3.38-2.01,5.11-2.95,0,0-.46,.54-.46,.54,.45-1.38,1.4-4.13,1.9-5.49,0,0,.12-.33,.12-.33l.27-.17c3.61-2.22,7.26-4.35,11.14-6.11-3.17,2.84-6.59,5.32-10.08,7.72,0,0,.38-.49,.38-.49-.44,1.38-1.39,4.14-1.89,5.5,0,0-.13,.37-.13,.37-1.85,.97-3.74,1.86-5.65,2.73,0,0-.25,.11-.25,.11-2.51-.44-5-.94-7.46-1.63h0Z"/>
      </g>
      <g id="Capa_8" data-name="Capa 8">
        <path class="cls-36" d="M479.54,617.63c5.64,.08,11.64-.52,17.07-2.02,2.4-8.89,2.65-18.33,.76-27.35-7.33-6.18-16.64-9.95-26.2-10.61-.6,13.58,2.63,27.66,8.37,39.99Z"/>
        <path class="cls-12" d="M486.48,616.35c1.89-11.6,.48-23.54-3.8-34.49-3.29-1.48-7.03-2.65-10.6-3.2-.17,12.87,2.36,25.77,7.39,37.63,2.17,.3,4.88,.56,7.01,.06Z"/>
        <path class="cls-36" d="M488.17,644.91c2.7-8.16,3.6-17,2.67-25.72-.01-.01-.03-.03-.04-.04-3.57-.32-7.17,.06-10.55,1.11-.09,11.35-3.21,22.56-9.25,31.79,4.49,.62,9.03,.57,13.43-.2,1.73-1.95,2.9-4.42,3.74-6.94Z"/>
        <path class="cls-41" d="M488.17,644.91c-.84,2.52-2,4.99-3.74,6.94-4.4,.77-8.95,.82-13.43,.2,0,.01-.02,.03-.03,.04,1.08,2.21,2.23,4.19,4.46,5.07,3.34,.6,8.46-.08,12.68-1.4,3.88-9.24,6.17-19.25,5.6-29.49-.07-1.23-.34-4.15-.34-4.15,0,0-1.55-2.17-2.54-2.93,.93,8.72,.03,17.56-2.67,25.72Z"/>
        <path class="cls-25" d="M531.22,32.54c-.6-3.76-.58-8.82-18.77-19.08-1.74-.98-3.43-1.8-5.06-2.46-35.47-15.76-70.29,7.87-79.14,24.08,0,0,7.19-6.38,13.07-5.99,5.88,.39-20.65,25.77-42.8,31.15,0,0,8.03,5.11,19.96-.38,11.94-5.49-18.81,23.14-36.64,14.32,0,0,3.14,6.88,7.9,10.26-6.94,11.28-23.39,15.65-23.39,15.65,2.75,1.94,7.26,2.38,11.33,2.29,4.79-.1,8.97-.93,8.97-.93-11.69,15.8-39.18,13-39.18,13,18.27,23.72,48.65,18.52,48.65,18.52-6.06,5.88-15.16,8.52-15.16,8.52,0,0-25.48,1.53-.13,1.14,22.35-.35,33.27-9.32,35.54-11.44,.06,.04,.12,.07,.17,.1-10.67,20.41-8.01,29.4-8.01,29.4,5.48-8.83,24.46-26.83,30.55-30.25,0,0,0,0,0,0,9.11-4.97,20.29-16.29,31.3-40.78,0,0,10.6,3.04,32.15-22.76,21.55-25.8,21.47-18.66,25.79-20.73,4.32-2.08,3.47-9.88,2.87-13.64Z"/>
        <path class="cls-31" d="M525.58,21.14c-.28-3.27,0-7.72-13.73-15.81-1.32-.78-2.59-1.41-3.84-1.91-26.98-12.05-55.45,10.48-63.21,25.19,0,0,5.96-5.97,10.54-5.93,4.58,.05-17.48,23.7-35.11,29.55,0,0,6.03,4.09,15.66-1.34,9.63-5.43-15.91,21.3-29.43,14.45,0,0,2.11,5.88,5.67,8.62-6.01,10.27-19.11,14.94-19.11,14.94,2.05,1.56,5.56,1.72,8.76,1.44,3.76-.33,7.08-1.27,7.08-1.27-9.96,14.48-31.35,13.42-31.35,13.42,13.1,19.92,37.17,13.81,37.17,13.81-5.05,5.48-12.3,8.25-12.3,8.25,0,0-20.03,2.64-.16,1,17.53-1.44,26.54-9.88,28.42-11.86,.04,.03,.09,.05,.13,.08-9.39,18.48-7.76,26.25-7.76,26.25,4.74-8.04,20.52-24.83,25.46-28.14,0,0,0,0,0,0,7.39-4.83,16.72-15.34,26.59-37.43,0,0,8.15,2.14,26.34-21.64,18.19-23.77,17.77-17.49,21.25-19.53,3.49-2.04,3.22-8.86,2.94-12.14Z"/>
        <path class="cls-25" d="M479.45,135.58c7.42,46.42-27.12,57.72-27.12,57.72,25.01-24.32,20.08-61.7,20.08-61.7"/>
        <path class="cls-25" d="M469.16,108.86s6.17,27.35-7.79,42.1c0,0-5.61,5.84-10.36,7.45s36.83-5.72,24.75-38.06"/>
        <path class="cls-25" d="M531.95,117.15s.08-80.8-25.32-96.3c-1.33-.81-2.63-1.44-3.89-1.9v.43c-1.81-.66-3.09-.65-3.52-.72-.4-.06-1.34,.25-2.48,.73v-1.56c-1.27,.47-2.56,1.09-3.89,1.9-7.61,4.64-12.93,15.14-16.65,27.58-4.19,11.6-6.42,27.59-6.49,48.34-.85,11.96-.44,20.06-.44,20.06-.36,23.77,6.4,37.38,6.4,37.38-1.96-4.47,.38-11.3,.38-11.3,1.21-11.32,3.58,13.42,3.58,13.42,0,0,1.62-2.82,1.79-6.91,.16-4.09,6.08,4.75,4.62,21.12,0,0,5.61-4.55,7.28-17.23,.06,.06,.11,.14,.16,.24,.98-2.78,3.63-13.14-2.97-30.69-7.81-20.77,1.13-33.16,1.13-33.16,0,0,13.06-10.07,15.93-1.39,2.88,8.68,6.99,15.64,1.13,35.33-5.86,19.68-1.45,31.07-1.45,31.07,1.59,14.51,7.09,17.07,7.09,17.07-3.9-10.91,3.58-25.33,3.74-21.24,.16,4.09,1.79,6.91,1.79,6.91,0,0,3.51-16.24,3.97-14,0,0,2.21,1.86,.25,6.33,0,0,8.24-7.74,7.88-31.51Z"/>
        <path class="cls-32" d="M530.85,55.18c0-.62-.02-1.25-.05-1.89,0,0,0-.01,0-.02,.03-.77,.06-1.55,.06-2.34,0-22.33-14.31-40.43-31.97-40.43s-31.97,18.1-31.97,40.43c0,5.15,.77,10.07,2.16,14.6,5.57,21.98,25.89,33.7,32.3,33.39,2.99-.14,8.75-3.19,14.4-8.68,0,0,.01-.01,.02-.02,.67-.66,1.35-1.35,2.01-2.08,.03-.03,.06-.07,.09-.1,.31-.34,.62-.69,.93-1.05,.05-.05,.09-.11,.14-.17,.3-.35,.6-.71,.89-1.07,.01-.02,.03-.03,.04-.05,.29-.36,.58-.73,.87-1.1,.07-.09,.14-.18,.21-.27,.27-.36,.54-.73,.81-1.1,.07-.09,.13-.19,.2-.28,.23-.32,.45-.65,.67-.98,.06-.09,.13-.19,.19-.28,.25-.38,.49-.76,.73-1.15,.08-.13,.16-.26,.24-.39,.24-.39,.47-.78,.7-1.18,.06-.11,.13-.23,.19-.34,.19-.33,.37-.67,.55-1.01,.07-.14,.15-.27,.22-.41,.21-.41,.42-.82,.62-1.23,.07-.15,.15-.31,.22-.46,.18-.39,.36-.78,.54-1.17,.06-.14,.13-.29,.19-.43,.16-.38,.32-.76,.47-1.14,.06-.16,.13-.32,.19-.47,.17-.45,.34-.9,.5-1.35,.05-.16,.11-.31,.16-.47,.14-.4,.27-.8,.39-1.21,.04-.12,.08-.24,.11-.36,.14-.48,.28-.96,.41-1.45,.04-.16,.09-.33,.13-.49,.13-.5,.25-1,.36-1.5,.03-.14,.06-.27,.09-.41,.09-.45,.18-.9,.26-1.35,.02-.13,.05-.25,.07-.38,.09-.53,.17-1.07,.24-1.61,.02-.15,.04-.31,.06-.46,.07-.56,.13-1.11,.18-1.68,0-.09,.01-.18,.02-.27,.04-.52,.07-1.05,.1-1.58,0-.13,.01-.26,.02-.38,.02-.58,.03-1.18,.03-1.77,0-.13,0-.26,0-.4Z"/>
        <path class="cls-38" d="M500.92,82.3h-.72c-3.88,0-7.22,2.53-7.22,2.53h7.61l7.54-2.53s-3.34,0-7.22,0Z"/>
        <path class="cls-22" d="M500.59,84.84h-7.61s3.67,2.04,7.07,2.21h1.01c3.41-.17,7.07-4.74,7.07-4.74l-7.54,2.53Z"/>
        <path class="cls-31" d="M501.22,32.14c23.16-4.77,27.76,14.75,27.76,14.75,4.9-32.15-15.85-38.84-15.85-38.84,0,0-14.6-6.74-31.93,1.05-17.33,7.78-13.44,37.48-13.44,37.48,0,0,6.59-19.59,28.48-14.32l4.97-.12Z"/>
        <path class="cls-35" d="M502.45,73.95c-1.61,.77-3.67,.72-5.21-.24-.27-.18-.23-.52,.06-.65,1.12-.52,2.45-1,3.65-1.36,1.15-.35,2.14-1.06,3.29-1.38,.06-.02,.12,.02,.15,.08,.56,1.5-.61,2.93-1.93,3.56Z"/>
        <path class="cls-3" d="M493.7,59.27s-2.51,3.53-8.96,2.84-8.34-6.53-8.34-6.53c0,0,3.03-.23,9.19,.39s8.11,3.31,8.11,3.31Z"/>
        <polygon class="cls-17" points="517.58 61.81 517.58 68.05 518.86 68.05 518.86 61.37 517.58 61.81"/>
        <g>
          <path class="cls-17" d="M518.22,71.87c-1.27,0-2.29-1.04-2.29-2.32s1.03-2.32,2.29-2.32,2.29,1.04,2.29,2.32-1.03,2.32-2.29,2.32Z"/>
          <path class="cls-18" d="M518.22,71.6c-1.12,0-2.03-.92-2.03-2.05s.91-2.05,2.03-2.05,2.03,.92,2.03,2.05-.91,2.05-2.03,2.05Z"/>
          <path class="cls-42" d="M518.22,71.08c-.84,0-1.52-.69-1.52-1.54s.68-1.54,1.52-1.54,1.52,.69,1.52,1.54-.68,1.54-1.52,1.54Z"/>
          <path class="cls-4" d="M518.22,70.36c-.44,0-.8-.36-.8-.81s.36-.81,.8-.81,.8,.36,.8,.81-.36,.81-.8,.81Z"/>
        </g>
        <g>
          <path class="cls-17" d="M523.54,65.96c-.84,0-1.53-.69-1.53-1.55s.68-1.55,1.53-1.55,1.53,.69,1.53,1.55-.68,1.55-1.53,1.55Z"/>
          <path class="cls-18" d="M523.54,65.78c-.75,0-1.35-.61-1.35-1.37s.61-1.37,1.35-1.37,1.35,.61,1.35,1.37-.61,1.37-1.35,1.37Z"/>
          <path class="cls-42" d="M523.54,65.44c-.56,0-1.01-.46-1.01-1.02s.45-1.02,1.01-1.02,1.01,.46,1.01,1.02-.45,1.02-1.01,1.02Z"/>
          <path class="cls-4" d="M523.54,64.96c-.3,0-.54-.24-.54-.54s.24-.54,.54-.54,.54,.24,.54,.54-.24,.54-.54,.54Z"/>
        </g>
        <rect class="cls-17" x="518.22" y="63.87" width="4.08" height="1.08"/>
        <path class="cls-3" d="M493.7,59.27s-2.51,3.53-8.96,2.84-8.34-6.53-8.34-6.53c0,0,3.03-.23,9.19,.39s8.11,3.31,8.11,3.31Z"/>
        <path class="cls-15" d="M525.76,54.11s-8.9-1.9-16.74,3.91c0,0,4.3-2.27,9.45-2.12,0,0,1.79-.48,5.86-.33,0,0-1.39,4.39-6.26,6.09,0,0,2.75-.16,5.49-2.93,2.74-2.77,2.19-4.63,2.19-4.63Z"/>
        <path class="cls-31" d="M527.25,47.28c-5.65,4.25-12.37,6.73-19.25,8.2,.46-1.9,.97-3.84,1.76-5.64,.31,1.48,.45,2.96,.53,4.45,0,0-1.33-1.01-1.33-1.01,5.68-3.1,11.8-5.41,18.28-6h0Z"/>
        <g class="cls-30">
          <g>
            <circle class="cls-29" cx="486.54" cy="57.73" r="4.62"/>
            <circle class="cls-37" cx="486.54" cy="57.64" r="2.87"/>
          </g>
        </g>
        <path class="cls-31" d="M470.09,121.58s8.84-7.17,4.87-31.99c-4.02-25.17,2.11-49.66,8.83-59.39,0,0,.1-2.01,8.93-8.63,8.83-6.62-1.71-14.15-5.92-12.24-4.21,1.91-10.03,2.51-17.96,14.15-7.93,11.64-11.74,27.69-13.34,43.74s14.59,54.37,14.59,54.37Z"/>
        <path class="cls-15" d="M475.49,54.11s8.9-1.9,16.74,3.91c0,0-4.3-2.27-9.45-2.12,0,0-1.79-.48-5.86-.33,0,0,1.39,4.39,6.26,6.09,0,0-2.75-.16-5.49-2.93s-2.19-4.63-2.19-4.63Z"/>
        <path class="cls-31" d="M529.73,121.92s-8.84-7.17-4.87-31.99c4.02-25.17-2.11-49.66-8.83-59.39,0,0-.1-2.01-8.93-8.63s1.71-14.15,5.92-12.24c4.21,1.91,10.03,2.51,17.96,14.15,7.93,11.64,11.74,27.69,13.34,43.74,1.61,16.05-14.59,54.37-14.59,54.37Z"/>
        <path class="cls-31" d="M481.98,23.1c-14.2,32.17,7.21,54.38,7.21,54.38-17.88-22.67,2.4-55.27,2.4-55.27l-9.61,.89Z"/>
        <path class="cls-25" d="M525.8,131.22s-11.83,19.08-1.89,49.88c0,0-4.96-25.25,3.98-38.7s18.68-38.37,13.24-53.2"/>
        <path class="cls-31" d="M458.32,137.76s22.49-18.1,11.24-35.38c-8.66-13.31,1.35-30.38,1.95-37.38,0,0,5.76-7.37,.64-10.74-13.17-8.65-17.49,1.07-18.95,3.04-1.46,1.98-4,3.54-4.67,11.88-.66,8.34,4.03,24.83,7.44,34.38,2.31,6.47,8.2,8.82,8.26,19.61,.02,3.91-5.91,14.58-5.91,14.58Z"/>
        <path class="cls-31" d="M537.23,98.2c-4.23-1.63-8.46-3.25-12.69-4.87-.32,3.89-.5,7.61-.56,10.69-.14,6.87,4.53,11.16,.76,21.26-1.37,3.66-10.71,11.53-10.71,11.53,0,0,27.45-8.93,23.07-29.08-.72-3.33-.58-6.52,.13-9.54Z"/>
        <path class="cls-17" d="M507.54,59.27s2.51,3.53,8.96,2.84,8.34-6.53,8.34-6.53c0,0-3.03-.23-9.19,.39s-8.11,3.31-8.11,3.31Z"/>
        <g class="cls-24">
          <g>
            <g>
              <circle class="cls-18" cx="514.2" cy="57.73" r="4.62"/>
              <circle class="cls-42" cx="514.2" cy="57.64" r="2.87"/>
            </g>
            <path class="cls-4" d="M514.2,58.82c-.64,0-1.16-.53-1.16-1.18s.52-1.18,1.16-1.18,1.16,.53,1.16,1.18-.52,1.18-1.16,1.18Z"/>
          </g>
        </g>
        <path class="cls-31" d="M474.27,47.28c6.48,.59,12.6,2.9,18.28,6,0,0-1.33,1.01-1.33,1.01,.07-1.49,.21-2.97,.53-4.45,.8,1.8,1.3,3.74,1.76,5.64-6.88-1.47-13.6-3.94-19.25-8.2h0Z"/>
      </g>
    </g>
  </g>
</svg>