<?xml version="1.0" encoding="UTF-8"?>
<svg id="Capa_2" data-name="Capa 2" xmlns="http://www.w3.org/2000/svg" viewBox="0 0 149.55 149.46">
  <defs>
    <style>
      .cls-1 {
        fill: #00b3eb;
      }
    </style>
  </defs>
  <g id="Capa_42" data-name="Capa 42">
    <path class="cls-1" d="M52.48,36.86c12.2-8.31,28.75-9.55,42.14-3.4,3.35,1.42,6.33,3.55,9.29,5.64-1.99,.12-3.2,1.72-4.49,3-3.15,3.2-6.31,6.38-9.52,9.52,.19,.62,.4,1.24,.62,1.87-2.2-.72-4.42-1.36-6.61-2.09l.06-.17s-.13,.08-.17,.1c-1.82,.8-2.75,2.64-3.94,4.09,.77,.83,1.57,1.68,2.35,2.53-5.68-1.46-11.15-3.6-16.83-5.01-.41,1.37-.79,2.75-1.14,4.12,.04-2.83,.32-5.64,.66-8.45-2.37,1.29-4.68,2.68-7.06,3.94-6.01,14.65-11.58,29.47-17.63,44.1-3.82-5.67-6.14-12.34-6.74-19.14,.8-3.08,.7-6.27,.04-9.36,1.18-12.58,8.44-24.39,18.99-31.3Z"/>
    <path class="cls-1" d="M69.59,67.15c2.56,.65,4.25-1.81,6.25-2.94-9.19,12.85-19.08,25.2-28.42,37.95,12.75-9.34,25.19-19.1,37.9-28.49-1.01,1.6-2.09,3.13-3.2,4.65,.28,1.39,.58,2.77,.91,4.16-1.19-.02-1.3,.39-.35,1.26,1.16,1.5,.87,3.77,1.3,5.6-.59-.75-1.18-1.52-1.72-2.28-10.19,7.24-20.41,14.44-30.71,21.54-4.06-2.93-7.55-6.56-10.58-10.52,7.08-10.36,14.44-20.53,21.55-30.87-.52-.39-1.55-1.19-2.07-1.58,3.06,.37,6.08,1.04,9.13,1.53Z"/>
    <path class="cls-1" d="M110.61,46.07c8.27,10.17,11.41,24.33,8.2,37.04-3.15,13.95-13.78,25.88-27.24,30.68-12.64,4.72-27.51,3.1-38.73-4.45,14.47-5.7,28.94-11.39,43.36-17.2,2.33-1.82,3.16-5.04,4.79-7.45-2.91,.19-5.79,.56-8.64,1.05,1.46-.58,2.92-1.13,4.42-1.68-1.73-5.62-3.59-11.2-5.23-16.84,.84,.8,1.65,1.61,2.51,2.43,1.45-.98,2.89-2.01,4.33-3.05-.8-2.62-1.5-5.28-2.24-7.92,.39,.32,1.18,.97,1.57,1.29,2.69-2.78,5.45-5.51,8.19-8.25,1.72-1.75,3.73-3.33,4.71-5.67Z"/>
    <path class="cls-1" d="M149.55,77.48h-6.91c.04-.91,.07-1.82,.07-2.74,0-37.5-30.4-67.9-67.9-67.9-.92,0-1.83,.03-2.74,.07V0c-14,.51-27.02,4.89-38.04,12.08,1.33,1.87,2.65,3.74,3.96,5.62-10.81,7-19.5,16.98-24.91,28.78-2.04-1.05-4.08-2.1-6.13-3.14C2.5,52.9,0,63.53,0,74.74c0,18.44,6.72,35.32,17.82,48.37l4.87-4.87c12.46,14.91,31.18,24.39,52.12,24.39,1.19,0,2.38-.03,3.55-.09v6.91c7.54-.35,14.79-1.84,21.59-4.28-.72-2.18-1.47-4.35-2.22-6.51,15.93-5.71,29.1-17.2,36.99-31.95,1.79,1.46,3.57,2.92,5.35,4.39,5.63-10.02,9.04-21.44,9.48-33.62Zm-74.74,61.01c-35.16,0-63.76-28.6-63.76-63.76S39.66,10.98,74.81,10.98s63.76,28.6,63.76,63.76-28.6,63.76-63.76,63.76Z"/>
  </g>
</svg>