<?xml version="1.0" encoding="UTF-8"?>
<svg id="Capa_2" data-name="Capa 2" xmlns="http://www.w3.org/2000/svg" viewBox="0 0 149.55 149.46">
  <defs>
    <style>
      .cls-1 {
        fill: #00b3eb;
      }
    </style>
  </defs>
  <g id="Capa_42" data-name="Capa 42">
    <path class="cls-1" d="M74.6,28.54c12.32,.45,24.48,5.98,32.36,15.55,6.93,8.16,10.64,18.94,10.27,29.63-.31,9.74-4.07,19.25-10.25,26.76-4.2-13.12-8.4-26.24-12.6-39.36,3.21,1.74,6.34,3.65,9.67,5.2-4.76-6.2-9.32-12.54-14.13-18.7-.7,7.76-1.85,15.48-2.52,23.24,1.52-2.81,2.85-5.73,4.1-8.67,1.37,8.69,2.54,17.4,3.99,26.07-7.15-2.55-13.88-7.03-17.76-13.7-1.19-10.07-1.34-20.23-2.38-30.32,1.49,1.34,2.98,2.69,4.51,4.01-1.76-6.58-3.55-13.15-5.25-19.73Z"/>
    <path class="cls-1" d="M80.33,101.48c.69-2.1,2.03-3.88,3.23-5.7,7.15,2.02,14.3,4.07,21.43,6.15-.15,1.06-1.1,1.69-1.78,2.39-7.06,6.48-16.28,10.71-25.87,11.34-.72-1.53-1.54-3-2.22-4.54,.98,1,1.92,2.05,2.79,3.15,.74-.87,1.5-1.74,2.25-2.6-.12-3.38-.67-6.85,.16-10.18Z"/>
    <path class="cls-1" d="M49.19,35.93c6.84-4.76,15.09-7.04,23.34-7.57-1.35,6.54-3.52,12.87-4.77,19.43,1.38-1.21,2.76-2.41,4.17-3.6-.98,9.9-1.35,19.85-2.23,29.76-3.45,7.1-10.66,11.86-18.02,14.25,1.21-8.41,2.4-16.84,3.83-25.21,1.9,2.26,2.94,5.04,4.21,7.67-.9-7.58-1.63-15.19-2.68-22.75-4.57,6.04-9.01,12.18-13.65,18.15,3.11-1.59,6.17-3.27,9.28-4.86-3.84,13.2-8.28,26.22-12.45,39.31-7.9-9.14-11.56-21.67-10.02-33.65,1.39-12.43,8.58-24.02,18.99-30.93Z"/>
    <g>
      <path class="cls-1" d="M67.37,89.85c-1.14-4.2,2.91-8.66,7.22-7.67,4.25,.48,6.55,5.8,4.43,9.38-1.01,2.15-3.53,2.71-5.46,3.65-2.59-.96-5.72-2.26-6.19-5.37Z"/>
      <path class="cls-1" d="M41.79,101.91c7.36-2.01,14.64-4.31,22.04-6.16,1.57,2.64,3.34,5.36,3.49,8.53,.41,3.35-1.36,7.49,2,9.79,.74-.82,1.5-1.63,2.27-2.44-.57,1.45-1.14,2.9-1.7,4.36-10.55-1.33-21.25-5.68-28.11-14.08Z"/>
    </g>
    <path class="cls-1" d="M149.55,77.48h-6.91c.04-.91,.07-1.82,.07-2.74,0-37.5-30.4-67.9-67.9-67.9-.92,0-1.83,.03-2.74,.07V0c-14,.51-27.02,4.89-38.04,12.08,1.33,1.87,2.65,3.74,3.96,5.62-10.81,7-19.5,16.98-24.91,28.78-2.04-1.05-4.08-2.1-6.13-3.14C2.5,52.9,0,63.53,0,74.74c0,18.44,6.72,35.32,17.82,48.37l4.87-4.87c12.46,14.91,31.18,24.39,52.12,24.39,1.19,0,2.38-.03,3.55-.09v6.91c7.54-.35,14.79-1.84,21.59-4.28-.72-2.18-1.47-4.35-2.22-6.51,15.93-5.71,29.1-17.2,36.99-31.95,1.79,1.46,3.57,2.92,5.35,4.39,5.63-10.02,9.04-21.44,9.48-33.62Zm-74.74,61.01c-35.16,0-63.76-28.6-63.76-63.76S39.66,10.98,74.81,10.98s63.76,28.6,63.76,63.76-28.6,63.76-63.76,63.76Z"/>
  </g>
</svg>