<?xml version="1.0" encoding="UTF-8"?>
<svg id="Capa_2" data-name="Capa 2" xmlns="http://www.w3.org/2000/svg" viewBox="0 0 149.55 149.46">
  <defs>
    <style>
      .cls-1 {
        fill: #00b3eb;
      }
    </style>
  </defs>
  <g id="Capa_42" data-name="Capa 42">
    <path class="cls-1" d="M60.49,30.5c8-1.85,16.53-1.71,24.37,.86,7.68,2.41,14.59,7.06,19.94,13.06-3.12,2.86-6.3,5.64-9.37,8.54,1.06,.18,2.14,.36,3.23,.53-.92,2.37-1.91,4.71-2.79,7.1-.34,.04-1.02,.12-1.36,.16,.2,.17,.6,.53,.8,.7-2.18,4.48-4.59,9.14-8.65,12.22-1.94,1.5-4.53,1.47-6.85,1.28-.54-.43-1.07-.86-1.6-1.29-.37-2.82,1.22-5.48,3.61-6.89,2.62-1.56,4-4.43,4.86-7.25,1.04,1.02,2.12,2.02,3.21,3-.04-4.37-.62-8.71-.85-13.07-3.22,2.81-6.62,5.37-9.86,8.14,1.43,.29,2.89,.49,4.37,.59-1.76,3.04-4.58,5.17-7.37,7.17-3.43,2.73-5.54,8.04-3.03,12.03,1.74,2.77,5.03,3.79,8.06,4.42-.35,1.42-.8,3.71,1.47,3.5,.27,1.44,1.3,2.96,.6,4.41-2.27,5.12-4.89,10.07-7.13,15.19-.26-.1-.78-.31-1.05-.41,.14,.24,.44,.71,.58,.96-1.37,3.58-3.27,6.94-4.81,10.45-4.24-8.47-8.16-17.1-12.29-25.62-.98-1.71,.19-3.63,.5-5.38,.48-.14,1.45-.44,1.94-.58-.21-.61-.63-1.83-.83-2.44,3.32-.67,7.04-1.83,8.66-5.11,1.99-4.31-.41-9.4-4.09-11.96-2.59-1.78-5.05-3.82-6.61-6.6,1.45-.14,2.93-.34,4.37-.6-1.64-1.49-3.68-2.61-4.94-4.48-2.04-.76-3.46-2.55-5.19-3.8-.06,4.34-.45,8.67-.53,13.01,1.01-.89,2.06-1.8,3.07-2.72,.9,2.81,2.37,5.56,4.96,7.16,2.55,1.55,4.37,4.72,3.03,7.65-2.99,1.08-6.58,.75-8.93-1.54-5.54-5.19-8.13-12.57-11.12-19.36,1.09-.2,2.17-.42,3.27-.64-2.89-2.73-5.93-5.3-8.79-8.07,4.4-5.25,10.09-9.35,16.36-12.07,.14,.21,.43,.61,.58,.81,.4-1.73,2.4-1.86,3.75-2.55,0,.27,0,.81,0,1.08,.29-1.14,1.38-1.37,2.39-1.61Z"/>
    <g>
      <path class="cls-1" d="M105.25,44.83c12.42,14.3,14.05,36.69,3.75,52.6-7.11,11.44-19.7,19.41-33.15,20.53,3.41-8.7,6.93-17.35,10.31-26.06,.47-2.04,2.73-2.55,4.37-3.37,.43,.2,1.29,.61,1.71,.82,.46-.76,.93-1.52,1.41-2.27,2.3,1.63,4.83,3.37,7.79,3.18,3.08,.1,5.56-2.31,6.8-4.93,2.51-4.98-.65-10.55,1.19-15.71,1.14,.84,2.28,1.71,3.44,2.55-.15-4.18-.48-8.35-.74-12.53-3.23,2.69-6.58,5.25-9.62,8.16,1.32,.14,2.65,.25,4,.33-.94,1.89-2.08,3.81-2.05,5.99-.09,2.81,.83,5.96-1.01,8.41-.78,1.71-3.3,1.78-4.5,.53-2.62-2.12-3.31-5.73-2.85-8.91,.82-6.81,3.71-13.16,6.81-19.2,.78,.72,1.58,1.42,2.4,2.11,.06-4.07-.13-8.14-.05-12.22Z"/>
      <path class="cls-1" d="M33.53,97.45c-10.02-15.52-8.88-37.41,3.02-51.6,.04,3.73-.19,7.45-.11,11.18,.59-.5,1.76-1.5,2.35-2,3.01,5.55,5.49,11.47,6.68,17.7,.66,3.44,.39,7.43-2.31,9.97-1.07,1.34-3.42,1.78-4.53,.29-2.05-2.2-1.43-5.43-1.31-8.15,.17-2.42-1.07-4.61-2.14-6.69,1.39-.09,2.77-.22,4.17-.36-3.13-2.78-6.45-5.35-9.61-8.09-.71,4.12-.77,8.33-.83,12.5,1.16-.94,2.3-1.91,3.42-2.88,.29,2.81,1.15,5.86-.04,8.56-.94,1.43-1.05,3.24-.06,4.69,1.22,2.73,2.47,5.82,5.39,7.13,3.63,1.58,7.47-.37,10.37-2.56,.62,.87,1.06,2.24,2.42,1.76,1.69-.31,3.12,.75,4.52,1.53,3.58,9.2,7.35,18.31,10.88,27.52-13.13-1.53-25.32-9.27-32.29-20.5Z"/>
    </g>
    <path class="cls-1" d="M149.55,77.48h-6.91c.04-.91,.07-1.82,.07-2.74,0-37.5-30.4-67.9-67.9-67.9-.92,0-1.83,.03-2.74,.07V0c-14,.51-27.02,4.89-38.04,12.08,1.33,1.87,2.65,3.74,3.96,5.62-10.81,7-19.5,16.98-24.91,28.78-2.04-1.05-4.08-2.1-6.13-3.14C2.5,52.9,0,63.53,0,74.74c0,18.44,6.72,35.32,17.82,48.37l4.87-4.87c12.46,14.91,31.18,24.39,52.12,24.39,1.19,0,2.38-.03,3.55-.09v6.91c7.54-.35,14.79-1.84,21.59-4.28-.72-2.18-1.47-4.35-2.22-6.51,15.93-5.71,29.1-17.2,36.99-31.95,1.79,1.46,3.57,2.92,5.35,4.39,5.63-10.02,9.04-21.44,9.48-33.62Zm-74.74,61.01c-35.16,0-63.76-28.6-63.76-63.76S39.66,10.98,74.81,10.98s63.76,28.6,63.76,63.76-28.6,63.76-63.76,63.76Z"/>
  </g>
</svg>