<?xml version="1.0" encoding="UTF-8"?>
<svg id="Capa_2" data-name="Capa 2" xmlns="http://www.w3.org/2000/svg" viewBox="0 0 149.55 149.46">
  <defs>
    <style>
      .cls-1 {
        fill: #00b3eb;
      }
    </style>
  </defs>
  <g id="Capa_42" data-name="Capa 42">
    <g>
      <path class="cls-1" d="M74.53,25.75c12.86,.76,25.55,6.28,34,16.16,5.82,6.66,9.7,14.95,11.03,23.7,.14,1.46,.79,3.02,.18,4.45-.98,1.95-.89,4.13-.03,6.09,.15,6.73-2.34,13.45-5.49,19.38-7.25,13.37-21.36,22.39-36.42,23.97,.04-2.23-1.03-4.17-1.77-6.2-.18-4.53-.25-9.09,.05-13.61,.59-2.25,3.52-1.81,5.28-1.6,.83,.76,1.53,1.64,2.34,2.42,1.81-2.54,1.48-5.87-.76-8.02-.39,.87-.76,1.74-1.13,2.61-1.82,.09-3.47-.6-4.94-1.61,7.31-5.97,15-11.48,22.2-17.56,1.84-7.47,2.9-15.13,4.27-22.71-3.94,1.78-7.84,3.63-11.78,5.38-.71,4.6-1.16,9.23-1.89,13.83-2.61,2.32-5.15,4.72-7.88,6.91-1.73-5.18-5.49-9.95-4.81-15.66,.36-9.01,.68-18.01,1-27.03,.34-3.96-2.25-7.28-3.44-10.88Z"/>
      <path class="cls-1" d="M45.08,35.44c7.66-5.99,17.3-8.99,26.94-9.58-1.13,3.58-3.87,6.84-3.44,10.75,.35,9.04,.72,18.08,.95,27.12,.74,5.66-3.08,10.4-4.79,15.53-2.67-2.19-5.18-4.58-7.8-6.84-.74-4.61-1.14-9.28-1.89-13.89-4.01-1.74-7.95-3.6-11.9-5.47,1.39,7.61,2.51,15.3,4.27,22.83,7.2,6.14,14.99,11.59,22.27,17.63-1.98,1.81-5.4,2.37-6.07-.95-2.54,2.18-2.41,5.76-.43,8.29,.7-3.35,4.89-3.7,7.23-1.95,.4,4.76,.23,9.58,.13,14.36-.91,2-2.18,3.91-1.95,6.22-8.71-1.27-17.27-4.3-24.16-9.88-11.3-8.69-17.97-22.77-18.05-36.96,.16-14.38,7.08-28.6,18.69-37.21Z"/>
    </g>
    <path class="cls-1" d="M149.55,77.48h-6.91c.04-.91,.07-1.82,.07-2.74,0-37.5-30.4-67.9-67.9-67.9-.92,0-1.83,.03-2.74,.07V0c-14,.51-27.02,4.89-38.04,12.08,1.33,1.87,2.65,3.74,3.96,5.62-10.81,7-19.5,16.98-24.91,28.78-2.04-1.05-4.08-2.1-6.13-3.14C2.5,52.9,0,63.53,0,74.74c0,18.44,6.72,35.32,17.82,48.37l4.87-4.87c12.46,14.91,31.18,24.39,52.12,24.39,1.19,0,2.38-.03,3.55-.09v6.91c7.54-.35,14.79-1.84,21.59-4.28-.72-2.18-1.47-4.35-2.22-6.51,15.93-5.71,29.1-17.2,36.99-31.95,1.79,1.46,3.57,2.92,5.35,4.39,5.63-10.02,9.04-21.44,9.48-33.62Zm-74.74,61.01c-35.16,0-63.76-28.6-63.76-63.76S39.66,10.98,74.81,10.98s63.76,28.6,63.76,63.76-28.6,63.76-63.76,63.76Z"/>
  </g>
</svg>