<?xml version="1.0" encoding="UTF-8"?>
<svg id="Capa_2" data-name="Capa 2" xmlns="http://www.w3.org/2000/svg" viewBox="0 0 1717.88 356.39">
  <defs>
    <style>
      .cls-1, .cls-2 {
        fill: #00b3eb;
      }

      .cls-2 {
        opacity: .39;
      }
    </style>
  </defs>
  <g id="Capa_42" data-name="Capa 42">
    <path class="cls-2" d="M194.16,0l-.02,.68c-3.2-.17-6.43-.26-9.67-.26C85.58,.42,5.41,78.99,5.41,175.9s80.17,175.48,179.07,175.48c.59,0,1.17-.02,1.76-.02l-.09,4.2,1447.96,.83,83.78-169.2V0H194.16Z"/>
    <g>
      <path class="cls-1" d="M320.42,65.63c-9.95,9.95-19.9,19.9-29.85,29.85,19.22,22.3,30.87,51.31,30.87,83.06s-11.73,60.96-31.07,83.29l29.81,29.81c26.94-29.99,43.37-69.61,43.37-113.1s-16.32-82.93-43.13-112.9Z"/>
      <path class="cls-1" d="M0,178.53c0,77.28,49.34,143.01,118.23,167.48v-12.29c-22.77-8.73-43.11-22.34-59.79-39.53l27.48-27.48c-21.99-22.88-35.53-53.94-35.53-88.18,0-31.86,11.73-60.96,31.07-83.29l-27.53-27.53c17.46-19.48,39.44-34.83,64.31-44.36V11.06C49.34,35.52,0,101.25,0,178.53Z"/>
      <path class="cls-1" d="M301.08,39.46C270.46,14.8,231.57,0,189.19,0c-3.76,0-7.48,.18-11.18,.42,.3,1.49,.6,2.98,.91,4.47,3.4-.21,6.81-.37,10.27-.37,41.25,0,79.1,14.4,108.91,38.39,.99-1.15,1.97-2.3,2.97-3.45Z"/>
      <path class="cls-1" d="M186.97,330.74c-.46,0-.83,.37-.83,.83v23.99c0,.46,.37,.83,.83,.83s.83-.37,.83-.83v-23.99c0-.46-.37-.83-.83-.83Z"/>
      <path class="cls-1" d="M198.4,330.24c-.46,.04-.79,.44-.75,.9l2.09,23.9c.04,.46,.44,.79,.9,.75,.46-.04,.79-.44,.75-.9l-2.09-23.9c-.04-.46-.44-.79-.9-.75Z"/>
      <path class="cls-1" d="M209.74,328.75c-.45,.08-.75,.51-.67,.96l4.17,23.63c.08,.45,.51,.75,.96,.67,.45-.08,.75-.51,.67-.96l-4.17-23.63c-.08-.45-.51-.75-.96-.67Z"/>
      <path class="cls-1" d="M220.91,326.27c-.44,.12-.7,.57-.58,1.01l6.21,23.17c.12,.44,.57,.7,1.01,.58,.44-.12,.7-.57,.58-1.01l-6.21-23.17c-.12-.44-.57-.7-1.01-.58Z"/>
      <path class="cls-1" d="M231.82,322.83c-.43,.16-.65,.63-.49,1.06l8.21,22.54c.16,.43,.63,.65,1.06,.49,.43-.16,.65-.63,.49-1.06l-8.21-22.54c-.16-.43-.63-.65-1.06-.49Z"/>
      <path class="cls-1" d="M243.49,318.86c-.19-.41-.69-.59-1.1-.4s-.59,.69-.4,1.1l10.14,21.74c.19,.41,.69,.59,1.1,.4,.41-.19,.59-.69,.4-1.1l-10.14-21.74Z"/>
      <path class="cls-1" d="M253.66,313.48c-.23-.4-.73-.53-1.13-.3-.4,.23-.53,.73-.3,1.13l12,20.78c.23,.4,.73,.53,1.13,.3,.4-.23,.53-.73,.3-1.13l-12-20.78Z"/>
      <path class="cls-1" d="M263.33,307.23c-.26-.37-.78-.47-1.15-.2-.37,.26-.47,.78-.2,1.15l13.76,19.65c.26,.37,.78,.47,1.15,.2,.37-.26,.47-.78,.2-1.15l-13.76-19.65Z"/>
      <path class="cls-1" d="M272.42,300.17c-.29-.35-.82-.4-1.17-.1-.35,.29-.4,.82-.1,1.16l15.42,18.38c.29,.35,.82,.4,1.16,.1,.35-.29,.4-.82,.1-1.17l-15.42-18.38Z"/>
      <path class="cls-1" d="M280.86,292.34c-.32-.32-.85-.32-1.17,0-.32,.32-.32,.85,0,1.17l16.96,16.96c.32,.32,.85,.32,1.17,0,.32-.32,.32-.85,0-1.17l-16.96-16.96Z"/>
    </g>
    <g>
      <path class="cls-1" d="M272.39,174.51h10.41s0-.09,0-.13c0-4.64-.31-9.2-.91-13.67h12.45c-2.42-20.39-10.2-39.14-21.88-54.8l-8.84,8.84c-4.73-6.58-10.22-12.58-16.34-17.86l11-11-2.64-2.19c-21.03-17.45-47.68-27.07-75.04-27.09h-3.13s0,15.53,0,15.53c-55.1,1.6-99.28,46.77-99.28,102.26,0,.04,0,.09,0,.13h10.41c.04,28.67,13.21,54.26,33.82,71.08l-7.39,7.39c17.33,14.45,39.52,23.26,63.75,23.66v-10.39c.57,.01,1.15,.02,1.72,.02,50.71,0,91.82-41.07,91.89-91.76ZM180.59,59.72c27.77,.02,53.22,9.92,73.05,26.37l-8.78,8.78c-17.56-14.23-39.92-22.77-64.27-22.79v-12.35Zm-.1,204.96c-49.87,0-90.3-40.43-90.3-90.3s40.43-90.3,90.3-90.3,90.3,40.43,90.3,90.3-40.43,90.3-90.3,90.3Z"/>
      <path class="cls-1" d="M165.77,68.26v-6.73c-17.41,2.26-33.58,8.45-47.6,17.64l4.84,4.84c12.69-8.09,27.19-13.61,42.76-15.76Z"/>
      <path class="cls-1" d="M233.91,126.62c-4.21,4.21-8.42,8.42-12.62,12.62,8.13,9.43,13.06,21.7,13.06,35.13s-4.96,25.78-13.14,35.23l12.61,12.61c11.39-12.69,18.35-29.44,18.35-47.84s-6.9-35.08-18.24-47.75Z"/>
      <path class="cls-1" d="M155.33,245.21v-5.2c-9.63-3.69-18.23-9.45-25.29-16.72l11.62-11.62c-9.3-9.68-15.03-22.81-15.03-37.3,0-13.48,4.96-25.78,13.14-35.23l-11.64-11.64c7.39-8.24,16.68-14.73,27.2-18.76v-5.2c-29.14,10.35-50.01,38.15-50.01,70.84s20.87,60.49,50.01,70.84Z"/>
      <path class="cls-1" d="M81.07,189.32c-.05-2-1.71-3.57-3.71-3.52-2,.05-3.57,1.71-3.52,3.71,.05,2,1.71,3.57,3.71,3.52,2-.05,3.57-1.71,3.52-3.71Z"/>
      <path class="cls-1" d="M83.15,201.04c-.05-2-1.71-3.57-3.71-3.52-2,.05-3.57,1.71-3.52,3.71,.05,2,1.71,3.57,3.71,3.52,2-.05,3.57-1.71,3.52-3.71Z"/>
      <path class="cls-1" d="M86.1,212.45c-.05-2-1.71-3.57-3.71-3.52-2,.05-3.57,1.71-3.52,3.71,.05,2,1.71,3.57,3.71,3.52,2-.05,3.57-1.71,3.52-3.71Z"/>
      <path class="cls-1" d="M91.1,223.21c-.05-2-1.71-3.57-3.71-3.52-2,.05-3.57,1.71-3.52,3.71,.05,2,1.71,3.57,3.71,3.52,2-.05,3.57-1.71,3.52-3.71Z"/>
      <path class="cls-1" d="M93.24,229.55c-2,.05-3.57,1.71-3.52,3.71,.05,2,1.71,3.57,3.71,3.52,2-.05,3.57-1.71,3.52-3.71-.05-2-1.71-3.57-3.71-3.52Z"/>
      <path class="cls-1" d="M100.27,239.08c-2,.05-3.57,1.71-3.52,3.71,.05,2,1.71,3.57,3.71,3.52,2-.05,3.57-1.71,3.52-3.71-.05-2-1.71-3.57-3.71-3.52Z"/>
      <path class="cls-1" d="M99.97,174.38c0-.2,.01-.4,.02-.59h-5.44c0,.2,0,.4,0,.59,0,46.27,36.56,83.98,82.37,85.86v-5.44c-42.8-1.88-76.93-37.16-76.93-80.43Z"/>
      <path class="cls-1" d="M180.49,88.42c-21.12,0-40.45,7.63-55.42,20.27l3.85,3.85c13.97-11.66,31.94-18.69,51.56-18.69,44.47,0,80.52,36.05,80.52,80.52,0,19.62-7.03,37.59-18.69,51.56l3.85,3.85c12.64-14.96,20.27-34.29,20.27-55.42,0-47.47-38.48-85.95-85.95-85.95Z"/>
      <path class="cls-1" d="M295.23,178.65c-.45,12.1-2.79,23.72-6.71,34.59-3.86-1.28-7.7-2.62-11.54-4.05,2.55-7.07,4.37-14.49,5.31-22.19h-6.05c-5.6,42.88-39.33,76.91-82.07,82.97v6.05c9.31-1.24,18.22-3.75,26.56-7.31,1.68,3.72,3.31,7.47,4.91,11.23-6.18,2.65-12.62,4.79-19.29,6.34v5.35c52.53-11.53,92.16-57.46,94.1-112.98h-5.22Zm-64.96,98.79c-1.07-2.52-2.18-5.07-3.33-7.65,23.15-11.29,41.54-30.76,51.48-54.5,2.86,1.04,5.45,1.94,7.91,2.77-10.72,25.91-30.78,47.16-56.06,59.39Z"/>
      <path class="cls-1" d="M227.81,115.55c-12.95-10.43-29.4-16.69-47.32-16.69-1.59,0-3.16,.08-4.73,.18,.13,.63,.25,1.26,.38,1.89,1.44-.09,2.88-.16,4.34-.16,17.45,0,33.45,6.09,46.07,16.24,.42-.49,.84-.97,1.25-1.46Z"/>
    </g>
    <path class="cls-1" d="M186.97,356.39H1634.1c.59-1.18,1.18-2.35,1.78-3.53,27.33-54.29,54.67-108.58,82-162.87h0V0H180.59l15.17,4.65,91.8-1.13,3.81,7.57h9.28l-3.81-7.57h1.8l3.81,7.57h9.11l-3.81-7.57h1.92l3.81,7.57h9.28l-3.81-7.57h1.8l3.81,7.57h9.11l-3.81-7.57H1672.18l3.81,7.57h9.28l-3.81-7.57h1.8l3.81,7.57h9.11l-3.81-7.57h3.15l20.57,40.87v6.27c-1.27-2.52-2.54-5.05-3.81-7.57v18.1l3.81,7.57v3.57l-3.81-7.57v18.44l3.81,7.57v97.59c-27.61,54.84-55.22,109.67-82.82,164.51H292.41l-3.86-7.66h-9.28l3.86,7.66h-1.8l-3.86-7.66h-9.11l3.86,7.66h-1.92l-3.86-7.66h-9.28l3.86,7.66h-1.8l-3.86-7.66h-9.11l3.86,7.66h-63.87l.73,3.53Z"/>
  </g>
</svg>