<?xml version="1.0" encoding="UTF-8"?>
<svg id="Capa_2" data-name="Capa 2" xmlns="http://www.w3.org/2000/svg" viewBox="0 0 516.92 213.33">
  <defs>
    <style>
      .cls-1 {
        opacity: .5;
      }

      .cls-2 {
        fill: #00e7ff;
      }
    </style>
  </defs>
  <g id="Capa_5" data-name="Capa 5">
    <g>
      <polyline class="cls-2" points="271.58 196.34 265.12 196.43 271.58 196.34 271.58 190.68 22.22 190.68 22.22 56.61 73 5.83 116.99 5.83 116.99 0 70.58 0 16.39 54.2 16.39 196.51 265.75 196.51"/>
      <polygon class="cls-2" points="268.67 0 268.67 5.83 490.28 5.83 490.28 126.78 426.38 190.68 279.24 190.68 279.24 196.51 428.79 196.51 496.11 129.19 496.11 0 268.67 0"/>
    </g>
    <g class="cls-1">
      <polygon class="cls-2" points="74.89 21.35 35.34 60.9 35.34 176.05 414.49 176.05 475.39 115.15 475.39 21.35 74.89 21.35"/>
    </g>
    <polygon class="cls-2" points="16.39 115.02 16.39 196.51 81.93 196.95 65.54 213.33 0 213.33 0 131.4 16.39 115.02"/>
    <path class="cls-2" d="M516.92,74.86h0c-3.15,0-5.7-2.55-5.7-5.7h-5.7v17.1h5.7c0-3.15,2.55-5.7,5.7-5.7h0v-5.7Z"/>
    <path class="cls-2" d="M516.92,97.66h0c-3.15,0-5.7-2.55-5.7-5.7h-5.7v17.1h5.7c0-3.15,2.55-5.7,5.7-5.7h0v-5.7Z"/>
    <path class="cls-2" d="M516.92,120.46h0c-3.15,0-5.7-2.55-5.7-5.7h-5.7v17.1h5.7c0-3.15,2.55-5.7,5.7-5.7h0v-5.7Z"/>
    <path class="cls-2" d="M516.92,6.47h0c-3.15,0-5.7-2.55-5.7-5.7h-5.7V17.87h5.7c0-3.15,2.55-5.7,5.7-5.7h0V6.47Z"/>
    <path class="cls-2" d="M516.92,29.27h0c-3.15,0-5.7-2.55-5.7-5.7h-5.7v17.1h5.7c0-3.15,2.55-5.7,5.7-5.7h0v-5.7Z"/>
    <path class="cls-2" d="M516.92,52.07h0c-3.15,0-5.7-2.55-5.7-5.7h-5.7v17.1h5.7c0-3.15,2.55-5.7,5.7-5.7h0v-5.7Z"/>
  </g>
</svg>