<?xml version="1.0" encoding="UTF-8"?>
<svg id="Capa_2" data-name="Capa 2" xmlns="http://www.w3.org/2000/svg" viewBox="0 0 239.21 771.75">
  <defs>
    <style>
      .cls-1, .cls-2 {
        fill: #fff;
      }

      .cls-3 {
        fill: #27221f;
      }

      .cls-4 {
        fill: #0c0c0c;
      }

      .cls-5 {
        fill: #03566f;
      }

      .cls-6 {
        fill: #a44946;
      }

      .cls-2 {
        opacity: .57;
      }

      .cls-7 {
        fill: #d69b8e;
      }

      .cls-8 {
        fill: #00b0da;
      }

      .cls-9 {
        fill: #249184;
      }

      .cls-10 {
        fill: #339f9f;
      }

      .cls-11 {
        fill: #ffc7b6;
      }

      .cls-12 {
        fill: none;
      }

      .cls-13 {
        fill: #ed8472;
      }

      .cls-14 {
        fill: #a2bfdc;
      }

      .cls-15 {
        fill: #0a5951;
      }

      .cls-16 {
        fill: #8e3d3d;
      }

      .cls-17 {
        fill: #1e1e1e;
      }

      .cls-18 {
        fill: #666;
      }
    </style>
  </defs>
  <g id="Capa_41" data-name="Capa 41">
    <path class="cls-10" d="M192.57,157.42s.17-118.64-56.05-141.4c-2.95-1.19-5.82-2.11-8.62-2.8v.64c-4.02-.97-6.84-.96-7.78-1.05-.89-.09-2.97,.37-5.5,1.07v-2.29c-2.8,.69-5.67,1.6-8.62,2.8-16.84,6.82-28.62,22.24-36.86,40.49-9.28,17.04-14.22,40.51-14.36,70.97-1.88,17.56-.97,29.45-.97,29.45-.81,34.91,14.16,54.89,14.16,54.89-4.34-6.57,.84-16.59,.84-16.59,2.67-16.62,7.92,19.71,7.92,19.71,0,0,3.59-4.14,3.95-10.15,.36-6,13.45,6.98,10.23,31.01,0,0,12.41-6.68,16.11-25.3,2.29,1.45,.7,13.7,2.65,14.76,1.3,2.09,2.91,4.36,4.94,6.78v-4.23c3.42,1.65,5.5,2.41,5.5,2.41,2.71-1.28,5.29-2.6,7.78-3.95v7.4c3.84-4.58,6.25-8.69,7.74-11.87,1.02-.63,1.25-8.6,2.22-9.24,3.52,21.31,15.69,25.06,15.69,25.06-8.62-16.02,7.92-37.19,8.28-31.19,.36,6,3.95,10.15,3.95,10.15,0,0,7.76-23.85,8.79-20.55,0,0,4.9,2.73,.56,9.3,0,0,18.25-11.36,17.44-46.27Z"/>
    <path d="M238.92,757.26c-1.38-4.46-3.02-8.84-4.41-13.29-1.85-5.93-4.14-11.81-5.18-17.88-1.25-7.33-1.75-14.83-1.91-22.28-.66-31.09-1.21-62.18-1.45-93.27-.04-5.63-1.11-10.6-4.19-15.3-9.5-14.5-18.9-29.06-28.48-43.5-1.71-2.57-2.88-5.18-3.23-8.16-.51-4.33-1.19-8.65-1.42-12.99-.97-18.14-2.21-36.28-2.6-54.44-.84-38.99-1.24-77.99-1.78-116.98-.09-6.13-.47-18.56-.5-24.69-.05-10.24-14.25-36.89-19.65-45.47-11.08-20.52-22.72-36.15-22.72-36.15l26.82-75.01,3.02-45.52-35.6-4.65-2.38-31.32h-26.04l-.85,31.21-35.63,1.83-1.51,49.77,24.36,75.36s-31.48,42.7-36.68,73.75c-1.22,3.99-1.94,8.14-1.96,12.49-.03,6.13,.1,12.26,.01,18.39-.54,39-.94,77.99-1.78,116.98-.39,18.16-1.63,36.3-2.6,54.44-.23,4.34-.92,8.67-1.42,12.99-.35,2.98-1.52,5.59-3.23,8.16-9.59,14.44-18.99,29-28.48,43.5-3.08,4.69-4.15,9.67-4.19,15.3-.25,31.09-.79,62.18-1.45,93.27-.16,7.44-.67,14.94-1.91,22.28-1.03,6.07-3.32,11.95-5.18,17.88-1.39,4.45-3.03,8.83-4.41,13.29-.35,1.13-.39,2.49-.08,3.63,.97,3.56,2.18,7.05,3.39,10.87,4.07-2.35,7.95-4.23,11.35-6.72,1.61-1.18,2.66-3.41,3.35-5.37,2.06-5.83,2.53-11.99,1.7-17.97-1.58-11.34,.27-22.38,2.04-33.46,3.05-18.98,6.84-37.82,12.48-56.27,3.99-13.06,8.66-25.87,16.1-37.57,.49-.77,.62-1.81,.71-2.74,1.46-14.62,2.58-29.28,4.46-43.86,.77-6,2.98-11.86,4.78-17.72,10.5-34.12,20.94-68.25,31.69-102.29,2.98-9.45,6.92-18.62,10.47-27.9,.36-.95,.96-1.81,1.78-2.61l13.6-55.77h2.99l13.6,55.77c.82,.8,1.42,1.67,1.78,2.61,3.55,9.28,7.49,18.45,10.47,27.9,10.75,34.04,21.19,68.17,31.69,102.29,1.8,5.85,4.01,11.71,4.78,17.72,1.87,14.57,3,29.23,4.46,43.86,.09,.93,.22,1.97,.71,2.74,7.45,11.71,12.11,24.51,16.1,37.57,5.63,18.45,9.43,37.29,12.48,56.27,1.78,11.08,3.63,22.12,2.04,33.46-.84,5.98-.36,12.14,1.7,17.97,.69,1.96,1.74,4.18,3.35,5.37,3.4,2.49,7.28,4.37,11.35,6.72,1.21-3.81,2.42-7.31,3.39-10.87,.31-1.13,.27-2.5-.08-3.63Z"/>
    <path d="M200.2,251.64c-.49-.89-1.6-8.91-1.58-9.91,.11-4.43,.14-1.66,.39-6.08,1.45-25.97,.21-51.95-1.52-77.95-.62-9.29-3.85-10.83-6.61-19.82-1.13-3.68-2.85-4.57-2.85-4.57-10.19-.88-11.89-.18-21.33-1.54l1.51,46.08c.6,1.08,1.24,1.99,1.59,3,1.05,3.08,2.14,6.17,2.9,9.33,4.86,20.33,7.31,41.02,10,61.68,.76,5.81,.81,4.18,1.95,9.99,.06,.32,.51,1.53,1.07,2.99,2.83,3.44,10.56,4.27,13.59,2.45,2.43-1.46,4.02-7.83,2.7-12.38-.57-1.02-1.18-2.09-1.82-3.26Z"/>
    <path d="M37.22,252.97c.49-.89,1.6-8.91,1.58-9.91-.11-4.43-.14-1.66-.39-6.08-1.45-25.97-.21-51.95,1.52-77.95,.62-9.29,2.44-15.57,5.2-24.56,1.13-3.68,1.31-3.6,5.26-3.83,8.52-.5,14.12-.74,20.33-1.23l-1.51,49.77c-.6,1.08-1.24,1.99-1.59,3-1.05,3.08-2.14,6.17-2.9,9.33-4.86,20.33-7.31,41.02-10,61.68-.76,5.81-.81,4.18-1.95,9.99-.06,.32-.51,1.53-1.07,2.99-2.83,3.44-10.56,4.27-13.59,2.45-2.43-1.46-4.02-7.83-2.7-12.38,.57-1.02,1.18-2.09,1.82-3.26Z"/>
    <path d="M36.31,254.57c3.82-5.36,8.21-5.82,10.71-4.15,2.65,1.77,5.71,5.07,4.69,14.52-.96,2.74-2.25,6.34-2.39,6.97-.9,4.12-2,8.22-2.57,12.4-2.71,19.89-2.99,46.97-3.05,67.02h-11.99c0-1.29-.01-22.72,0-24,.24-22.78,2.16-27.94,.67-48.6-.25-3.52-.89-7.08-.59-10.55,.48-5.59,2.19-9.05,4.52-13.61Z"/>
    <path class="cls-11" d="M31.71,351.32s11.4-4.48,12.28-1.7c3.07,9.73,6.65,12.2,9.5,16.72,2.85,4.52,5.88,10.82,3.85,12.1-2.03,1.28-9.57-5.65-11.14-8.13-1.57-2.48-6.31,10.78-7.18,14.65-.87,3.87,5.62,15.41,3.14,16.98-2.49,1.57-12.87-14.63-14.22-16.77-1.35-2.15,2.94-30.16,3.77-33.84Z"/>
    <path class="cls-7" d="M34.85,372.27c.33,1.56,.66,3.11,1.03,4.65,.37,1.54,.75,3.07,1.18,4.59,.43,1.52,.92,3.02,1.43,4.51,.55,1.48,1.17,2.93,1.87,4.36-.96-1.27-1.73-2.69-2.4-4.15-.65-1.47-1.17-2.98-1.62-4.52-.42-1.54-.78-3.1-1.02-4.68-.25-1.58-.44-3.16-.46-4.76Z"/>
    <path class="cls-7" d="M37.18,387.18c-.8-.98-1.49-2.04-2.14-3.13-.65-1.08-1.21-2.22-1.71-3.39-.49-1.17-.92-2.38-1.16-3.63-.25-1.25-.4-2.55-.13-3.8,.05,1.27,.34,2.47,.69,3.66,.36,1.18,.8,2.34,1.29,3.49,.47,1.15,1,2.28,1.53,3.41l1.63,3.4Z"/>
    <path class="cls-11" d="M161.88,64.3c0-.81-.02-1.62-.06-2.43,0,0,0-.02,0-.03,.05-1,.07-2,.07-3.02,0-28.81-18.47-52.16-41.24-52.16s-41.24,23.35-41.24,52.16c0,6.65,.99,13,2.79,18.84,7.18,28.36,33.4,43.48,41.67,43.08,3.86-.19,11.29-4.12,18.57-11.2,0,0,.02-.02,.02-.02,.87-.85,1.74-1.74,2.6-2.68,.04-.04,.08-.09,.12-.13,.4-.44,.81-.9,1.21-1.36,.06-.07,.12-.14,.18-.21,.39-.45,.77-.91,1.15-1.38,.02-.02,.04-.04,.05-.07,.38-.46,.75-.94,1.12-1.42,.09-.12,.18-.23,.27-.35,.35-.47,.7-.94,1.05-1.42,.09-.12,.17-.24,.26-.37,.29-.41,.58-.84,.87-1.26,.08-.12,.16-.24,.24-.36,.32-.49,.64-.98,.95-1.48,.11-.17,.21-.34,.31-.51,.31-.5,.61-1.01,.9-1.52,.08-.15,.16-.29,.25-.44,.24-.43,.48-.86,.71-1.3,.09-.17,.19-.35,.28-.53,.27-.52,.54-1.05,.8-1.59,.1-.2,.19-.39,.28-.59,.24-.5,.47-1,.69-1.51,.08-.19,.16-.37,.24-.56,.21-.49,.41-.98,.61-1.47,.08-.2,.16-.41,.24-.61,.22-.57,.44-1.16,.64-1.74,.07-.2,.14-.4,.21-.6,.18-.51,.34-1.03,.51-1.56,.05-.16,.1-.31,.15-.47,.19-.62,.36-1.24,.53-1.87,.06-.21,.11-.42,.17-.63,.16-.64,.32-1.28,.46-1.94,.04-.18,.07-.35,.11-.53,.12-.58,.23-1.16,.34-1.74,.03-.16,.06-.33,.09-.49,.12-.69,.22-1.38,.31-2.08,.03-.2,.05-.4,.08-.6,.09-.72,.17-1.44,.23-2.17,0-.12,.02-.23,.03-.35,.05-.68,.1-1.36,.13-2.04,0-.17,.02-.33,.02-.5,.03-.75,.04-1.52,.04-2.28,0-.17,0-.34,0-.51Z"/>
    <path class="cls-16" d="M123.25,99.3h-.92c-5,0-9.32,3.27-9.32,3.27h19.56s-4.31-3.26-9.32-3.27Z"/>
    <path class="cls-6" d="M122.83,102.57h-9.82s4.73,2.64,9.13,2.85h1.3c4.39-.21,9.13-2.85,9.13-2.85h-9.73Z"/>
    <path class="cls-10" d="M123.65,34.57c29.88-6.16,35.82,19.04,35.82,19.04,6.32-41.48-20.45-50.12-20.45-50.12,0,0-18.83-8.69-41.19,1.35-22.36,10.04-17.33,48.36-17.33,48.36,0,0,8.51-25.27,36.75-18.48l6.42-.15Z"/>
    <path class="cls-13" d="M125.24,88.52c-2.07,.99-4.74,.93-6.72-.32-.35-.23-.29-.67,.07-.84,1.45-.67,3.16-1.29,4.71-1.75,1.48-.45,2.76-1.36,4.24-1.79,.08-.02,.16,.02,.19,.1,.73,1.93-.79,3.78-2.49,4.6Z"/>
    <path class="cls-1" d="M113.95,69.58s-3.23,4.56-11.56,3.66-10.76-8.43-10.76-8.43c0,0,3.71-4.4,11.66-3.61s10.66,8.38,10.66,8.38Z"/>
    <path class="cls-4" d="M131.14,69.58s3.23,4.56,11.56,3.66c8.32-.9,10.76-8.43,10.76-8.43,0,0-3.71-4.4-11.66-3.61-7.95,.8-10.66,8.38-10.66,8.38Z"/>
    <polygon class="cls-4" points="144.75 72.86 144.75 80.9 146.4 80.9 146.4 72.28 144.75 72.86"/>
    <g>
      <path class="cls-4" d="M145.58,85.83c-1.63,0-2.96-1.34-2.96-2.99s1.32-2.99,2.96-2.99,2.96,1.34,2.96,2.99-1.32,2.99-2.96,2.99Z"/>
      <path class="cls-5" d="M145.58,85.49c-1.44,0-2.62-1.18-2.62-2.64s1.17-2.64,2.62-2.64,2.62,1.18,2.62,2.64-1.17,2.64-2.62,2.64Z"/>
      <path class="cls-8" d="M145.58,84.82c-1.08,0-1.96-.89-1.96-1.98s.88-1.98,1.96-1.98,1.96,.89,1.96,1.98-.88,1.98-1.96,1.98Z"/>
      <path class="cls-2" d="M145.58,83.89c-.57,0-1.04-.47-1.04-1.05s.46-1.05,1.04-1.05,1.04,.47,1.04,1.05-.46,1.05-1.04,1.05Z"/>
    </g>
    <g>
      <path class="cls-4" d="M152.44,78.21c-1.09,0-1.97-.89-1.97-1.99s.88-1.99,1.97-1.99,1.97,.89,1.97,1.99-.88,1.99-1.97,1.99Z"/>
      <path class="cls-5" d="M152.44,77.98c-.96,0-1.75-.79-1.75-1.76s.78-1.76,1.75-1.76,1.75,.79,1.75,1.76-.78,1.76-1.75,1.76Z"/>
      <path class="cls-8" d="M152.44,77.54c-.72,0-1.31-.59-1.31-1.32s.59-1.32,1.31-1.32,1.31,.59,1.31,1.32-.59,1.32-1.31,1.32Z"/>
      <path class="cls-2" d="M152.44,76.92c-.38,0-.69-.31-.69-.7s.31-.7,.69-.7,.69,.31,.69,.7-.31,.7-.69,.7Z"/>
    </g>
    <rect class="cls-4" x="145.58" y="75.52" width="5.26" height="1.4"/>
    <g>
      <circle class="cls-9" cx="104.7" cy="67.59" r="5.97"/>
      <circle class="cls-15" cx="104.7" cy="67.48" r="3.7"/>
    </g>
    <g>
      <g>
        <circle class="cls-5" cx="140.39" cy="67.59" r="5.97"/>
        <circle class="cls-8" cx="140.39" cy="67.48" r="3.7"/>
      </g>
      <path class="cls-2" d="M140.39,68.99c-.83,0-1.5-.68-1.5-1.52s.67-1.52,1.5-1.52,1.5,.68,1.5,1.52-.67,1.52-1.5,1.52Z"/>
    </g>
    <path class="cls-3" d="M89.79,62.92s9.22-7.03,19.33,.46c0,0-3.77-2.97-10.08-2.11,0,0-4.62,.48-7.41,3.54,0,0,1.79,5.67,8.07,7.86,0,0-3.55-.21-7.08-3.78-3.53-3.57-2.83-5.97-2.83-5.97Z"/>
    <path class="cls-3" d="M155.3,62.92s-9.22-7.03-19.33,.46c0,0,3.77-2.97,10.08-2.11,0,0,4.62,.48,7.41,3.54,0,0-1.79,5.67-8.07,7.86,0,0,3.55-.21,7.08-3.78,3.53-3.57,2.83-5.97,2.83-5.97Z"/>
    <path class="cls-10" d="M112.26,55.17c-2.07,.62-4.13,.94-6.2,1.18-2.07,.22-4.13,.32-6.2,.32-2.07,0-4.13-.1-6.2-.32-2.07-.23-4.13-.55-6.2-1.18,2.07-.62,4.13-.95,6.2-1.18,2.07-.22,4.13-.32,6.2-.32,2.07,0,4.13,.1,6.2,.32,2.07,.23,4.13,.55,6.2,1.18Z"/>
    <path class="cls-10" d="M158.06,55.17c-2.07,.62-4.13,.94-6.2,1.18-2.07,.22-4.13,.32-6.2,.32-2.07,0-4.13-.1-6.2-.32-2.07-.23-4.13-.55-6.2-1.18,2.07-.62,4.13-.95,6.2-1.18,2.07-.22,4.13-.32,6.2-.32,2.07,0,4.13,.1,6.2,.32,2.07,.23,4.13,.55,6.2,1.18Z"/>
    <path class="cls-10" d="M83.48,149.98s11.4-9.25,6.29-41.28c-5.19-32.47,2.72-64.08,11.39-76.63,0,0,.13-2.59,11.52-11.13,11.39-8.54-2.2-18.25-7.64-15.79-5.44,2.46-12.94,3.24-23.17,18.25-10.23,15.02-15.15,35.73-17.22,56.44s18.83,70.15,18.83,70.15Z"/>
    <path class="cls-10" d="M160.43,150.41s-11.4-9.25-6.29-41.28c5.19-32.47-2.72-64.08-11.39-76.63,0,0-.13-2.59-11.52-11.13s2.2-18.25,7.64-15.79c5.44,2.46,12.94,3.24,23.17,18.25,10.23,15.02,15.15,35.73,17.22,56.44,2.07,20.71-18.83,70.15-18.83,70.15Z"/>
    <path class="cls-10" d="M98.82,22.91c-18.33,41.51,9.3,70.16,9.3,70.16-23.07-29.25,3.1-71.32,3.1-71.32l-12.4,1.15Z"/>
    <path class="cls-14" d="M199.27,252.3c-.45-.86-1.49-8.57-1.47-9.53,.11-4.26,.13-1.59,.36-5.85,1.35-24.99,.19-49.98-1.42-74.99-.58-8.96-.47-14.68-3.05-23.34-.67-2.25-5.53-7-7.87-6.85-2.49,.16-3.09,.35-5.58,.55-6.73,.54-12.62,.88-12.06,7.61v37.28c-.04,1.27,3.17,7.62,3.27,8.63,.33,3.25,1.48,4.31,2.19,7.35,4.53,19.56,6.81,39.47,9.32,59.34,.71,5.59,.76,4.02,1.82,9.61,.06,.31,.48,1.47,1,2.87,2.64,3.31,9.84,4.11,12.67,2.36,2.26-1.41,3.74-7.54,2.52-11.91-.54-.98-1.1-2.01-1.7-3.13Z"/>
    <path class="cls-14" d="M200.97,255.43c-3.77-4.94-8.09-5.37-10.56-3.82-2.61,1.63-5.63,4.67-4.63,13.38,.94,2.53,2.22,5.85,2.36,6.42,.89,3.8,1.97,7.58,2.53,11.43,2.68,18.33,2.95,43.3,3.01,61.78l9.72-.45c0-1.19-.33-7.69-.34-8.87-.24-21,.31-38.56,1.78-57.61,.25-3.24,.88-6.52,.59-9.72-.47-5.15-2.15-8.34-4.45-12.54Z"/>
    <path class="cls-14" d="M203.24,340.01s-8.91-3.41-9.59-.12c-2.36,11.49-6.62,16.72-9.08,21.98-2.46,5.25-4.98,12.64-2.97,14.29,2.02,1.66,8.81-6.22,10.16-9.11,1.35-2.89,6.65,13.29,7.71,17.99,1.06,4.69-4.47,18.16-2,20.18,.65,.54,1.76-.39,3.05-2.08,3.61-4.71,8.68-15.38,9.54-17.21,1.17-2.5-5.82-41.45-6.83-45.92Z"/>
    <path class="cls-18" d="M204.08,374.51c.21,.9,.31,1.81,.45,2.71,.14,.91,.22,1.82,.34,2.73,.22,1.82,.39,3.64,.54,5.46v.07s-.01,.08-.01,.08c-.65,2.6-1.33,5.2-2.07,7.78-.76,2.57-1.53,5.15-2.43,7.68,.44-2.66,1.02-5.28,1.6-7.9,.61-2.61,1.27-5.21,1.97-7.8v.15c-.12-1.82-.21-3.65-.25-5.48-.02-.91-.08-1.83-.08-2.74l-.05-2.75Z"/>
    <path class="cls-18" d="M206.41,369.63c.27,1.17,.48,2.35,.72,3.52l.62,3.54c.41,2.36,.74,4.73,1.07,7.1l.02,.12-.04,.12c-.82,2.18-1.63,4.36-2.52,6.51-.88,2.15-1.77,4.3-2.77,6.42,.61-2.25,1.32-4.47,2.05-6.68,.72-2.21,1.51-4.4,2.3-6.59l-.03,.24c-.31-2.37-.61-4.74-.84-7.13l-.34-3.57c-.08-1.2-.19-2.39-.23-3.59Z"/>
    <path class="cls-17" d="M195.15,271.66s0,0,.03-.04c3.7,.53,7.05-1.98,7.86-6.2,.92-4.79-1.79-9.96-6.06-11.55-4.27-1.59-8.47,1.01-9.39,5.8-.86,4.46,1.43,9.24,5.19,11.17,0,0-.01,.02-.02,.03,1.12,.51,1.52,.62,2.4,.8Z"/>
    <path class="cls-14" d="M195.96,270.77c4.09,.55,7.54-2.74,7.72-7.36,.18-4.62-2.99-8.81-7.08-9.36-4.09-.55-7.54,2.74-7.72,7.36-.18,4.62,2.99,8.81,7.08,9.36Z"/>
    <path class="cls-17" d="M192.04,268.46c-.21-.03-.41-.07-.61-.11,1.22,1.3,2.79,2.2,4.52,2.43,4.09,.55,7.54-2.74,7.72-7.36,.17-4.38-2.68-8.38-6.46-9.25,1.65,1.76,2.65,4.28,2.55,6.93-.18,4.62-3.63,7.91-7.72,7.36Z"/>
    <line class="cls-12" x1="190.09" y1="275.15" x2="190.09" y2="275.15"/>
    <polygon class="cls-17" points="197.55 340.77 195.18 271.62 195.95 270.78 199.12 269.65 199.12 342.68 197.55 340.77"/>
    <path class="cls-17" d="M193.19,342s4.34,2.03,10.68,1.15l-.63-3.13-9.59-1.15-.46,3.13Z"/>
    <g>
      <path class="cls-17" d="M185.64,162.92c.02-.08,0,0,.02-.07,4.31-1.09,7.44-6.19,7.25-12.35-.21-7.01-4.63-12.75-9.86-12.82-5.23-.07-9.3,5.56-9.08,12.57,.2,6.52,4.03,11.94,8.77,12.73,0,.01,0,.03-.01,.04,1.4,.14,1.88,.1,2.91-.09Z"/>
      <path class="cls-14" d="M186.32,161.3c4.76-1.25,7.8-7.47,6.79-13.87-1.01-6.41-5.68-10.59-10.43-9.33-4.76,1.25-7.8,7.47-6.79,13.87,1.01,6.41,5.68,10.59,10.43,9.33Z"/>
      <path class="cls-17" d="M181.29,160.07c-.24,.06-.48,.11-.72,.15,1.72,1.18,3.72,1.63,5.74,1.1,4.76-1.25,7.8-7.47,6.79-13.87-.96-6.08-5.21-10.16-9.71-9.48,2.32,1.6,4.11,4.55,4.69,8.23,1.01,6.41-2.03,12.62-6.79,13.87Z"/>
    </g>
    <polygon class="cls-17" points="188.46 231.6 183.03 162.62 183.76 161.75 186.88 160.48 190.12 233.44 188.46 231.6"/>
    <path class="cls-17" d="M180.47,232.89c15.17,1.86,17.92-.73,17.92-.73l.12-3.25c-7.94,2.02-18.48,.71-18.48,.71l.44,3.27Z"/>
  </g>
</svg>