<?xml version="1.0" encoding="UTF-8"?>
<svg id="Capa_2" data-name="Capa 2" xmlns="http://www.w3.org/2000/svg" viewBox="0 0 455.09 321.18">
  <defs>
    <style>
      .cls-1 {
        fill: #27221f;
      }

      .cls-2 {
        fill: #eab8ac;
      }

      .cls-3 {
        fill: #0c0c0c;
      }

      .cls-4 {
        fill: #03566f;
      }

      .cls-5 {
        fill: #a44946;
      }

      .cls-6 {
        fill: #fff;
        opacity: .57;
      }

      .cls-7 {
        fill: #00b0da;
      }

      .cls-8 {
        fill: #339f9f;
      }

      .cls-9 {
        fill: #ffc7b6;
      }

      .cls-10 {
        fill: #050505;
      }

      .cls-11 {
        fill: #ed8472;
      }

      .cls-12 {
        fill: #a2bfdc;
      }

      .cls-13 {
        fill: #8e3d3d;
      }

      .cls-14 {
        fill: #1e1e1e;
      }
    </style>
  </defs>
  <g id="Mechon_R" data-name="Mechon R">
    <path class="cls-10" d="M110.97,319.97l11.42-40.21-27.74-48.41s-10.93,36.9-11.5,68.54c0,0,5.01,8.91,11.97,20.08H51.23c-.04-1.53-.13-2.87-.28-3.98-3.45-25.31-4.6-35.66-4.6-35.66l-9.78-45.43s-23.66-3.83-24.2-33.84c0,0,32.81-19.55,38-61.63,5.19-42.09,62.39,68.03,62.39,68.03l30.21,91.28-12.28,21.23h-19.71Z"/>
    <polygon class="cls-10" points="36.36 319.97 11.73 319.97 12.37 313.12 33.01 284.94 33.85 234.18 57.27 231.35 41.83 297.59 36.36 319.97"/>
    <path class="cls-9" d="M7.64,25.01C35.13-11.64,105.37,1.28,111.05,24c1.89,7.57,13.71,15.3,10.18,44.55-5.56,46.09-84.25,56.61-108.86,58.51,0,0-4.65-15.48-8.51-32-.27-1.13-.63-4.73-1.44-5.82-.24-.33-.51-.45-.51-.45-1.13-1.31-1.65-2.32-1.84-3.2-.8-3.75,5.85-3.45,5.68-7.57C5.18,64.41,.06,41.65,7.64,25.01Z"/>
    <path class="cls-8" d="M5.97,62.63c.68-2.45,1.63-4.74,2.65-7,.26-.56,.52-1.12,.79-1.68l.41-.83,.21-.41,.25-.46c.71-1.21,1.67-2.29,2.82-3.13,1.14-.84,2.45-1.45,3.82-1.77,.34-.08,.7-.14,1.02-.19l.92-.11c.61-.08,1.23-.14,1.84-.2,2.47-.22,4.95-.36,7.48-.19-2.31,1.07-4.67,1.83-7.05,2.51-.6,.17-1.19,.33-1.79,.48l-.9,.22c-.28,.07-.52,.13-.78,.22-1.01,.32-1.95,.81-2.79,1.44-.85,.61-1.58,1.38-2.2,2.24l-.23,.33-.25,.39-.51,.77c-.34,.52-.69,1.03-1.04,1.53-1.43,2.02-2.92,4.01-4.69,5.84Z"/>
    <path class="cls-3" d="M10.74,75.89s3.88,0,10.23-5.86c6.35-5.86,5.26-11.97,5.26-11.97,0,0-7.6-3.09-12.09,3.83-4.7,7.24-3.4,14.01-3.4,14.01Z"/>
    <path class="cls-1" d="M26.53,55.24s-11.62-.17-15.15,12.71c0,0,.52-5.54,6.36-8.59,0,0,4.17-2.37,8.5-1.31,0,0-1.46,6.19-5.26,11.97,0,0,4.35-3.48,6.12-9.61,1.5-5.18-.57-5.18-.57-5.18Z"/>
    <g>
      <ellipse class="cls-4" cx="12.36" cy="70.9" rx=".95" ry="4.36" transform="translate(-.82 .15) rotate(-.67)"/>
      <ellipse class="cls-7" cx="12.36" cy="70.81" rx=".59" ry="2.7" transform="translate(-.82 .15) rotate(-.67)"/>
    </g>
    <path class="cls-11" d="M2.48,89.23c.2,.03,.44-.04,.68-.07,.83-.09,1.64-.33,2.37-.73l1.12-.6s-5.58,.66-6.18-1.15c0,0,.18,.39,.56,1.16,.2,.41,.97,1.31,1.45,1.38Z"/>
    <g>
      <path class="cls-13" d="M6.03,99.33c2.62,.25,4.98,1.26,5.97,1.73,.16,.08,.12,.31-.05,.34l-8.04,1.41c-.1,.02-.19-.05-.21-.15l-.1-.58c-.27-1.54,.93-2.9,2.42-2.76Z"/>
      <path class="cls-5" d="M3.77,103.02c-.02-.1,.04-.19,.13-.21l8.05-1.41s-.72,1.54-3.7,3.18c-.25,.14-.53,.25-.8,.34l-.8,.26c-1.26,.4-2.59-.48-2.83-1.87l-.05-.29Z"/>
    </g>
    <polygon class="cls-12" points="33.05 282.48 34.5 176.32 67.83 176.32 50.19 281.46 36.36 319.97 11.73 319.97 12.37 313.12 33.05 282.48"/>
    <g>
      <path class="cls-14" d="M39.75,293.25s0,0,.01-.04c2.33-.79,4.06-4,4.02-7.78-.04-4.3-2.36-7.7-5.17-7.6-2.81,.1-5.05,3.66-5.01,7.96,.04,4,2.04,7.22,4.58,7.57,0,0,0,.02,0,.03,.75,.05,1.01,.01,1.57-.13Z"/>
      <path class="cls-12" d="M40.13,292.24c2.57-.9,4.27-4.79,3.79-8.7-.47-3.9-2.94-6.34-5.51-5.44-2.57,.9-4.27,4.79-3.79,8.7,.47,3.9,2.94,6.34,5.51,5.44Z"/>
      <path class="cls-14" d="M37.44,291.62c-.13,.05-.26,.08-.39,.11,.91,.68,1.98,.9,3.07,.52,2.57-.9,4.27-4.79,3.79-8.7-.45-3.71-2.7-6.09-5.12-5.55,1.23,.92,2.16,2.68,2.44,4.92,.47,3.9-1.22,7.8-3.79,8.7Z"/>
    </g>
    <g>
      <path class="cls-14" d="M52.37,197.6c0-.08,0,0,0-.08,3.52-2.24,4.97-8.06,3.23-14.02-1.98-6.77-7.33-11.16-11.96-9.8-4.63,1.36-6.77,7.96-4.8,14.73,1.84,6.3,6.6,10.53,10.98,10,0,.01,0,.03,0,.04,1.27-.24,1.68-.41,2.54-.88Z"/>
      <path class="cls-12" d="M52.56,195.84c3.87-2.52,4.96-9.41,2.44-15.37-2.52-5.97-7.7-8.76-11.57-6.24-3.87,2.52-4.96,9.41-2.44,15.37,2.52,5.97,7.7,8.76,11.57,6.24Z"/>
      <path class="cls-14" d="M47.81,196.01c-.2,.13-.39,.24-.6,.34,1.81,.68,3.69,.57,5.34-.5,3.87-2.52,4.96-9.41,2.44-15.37-2.39-5.67-7.18-8.47-10.98-6.58,2.45,.92,4.78,3.31,6.23,6.74,2.52,5.97,1.43,12.85-2.44,15.37Z"/>
    </g>
    <polygon class="cls-14" points="35.72 291.96 20.37 319.97 24.96 319.97 38.19 293.36 35.72 291.96"/>
    <path class="cls-14" d="M33.27,262.23s1.46,2.12,5.23,3.14c1.67,.45,9.44,.41,15.09-.08l-.41,3.21c-11.4,1.85-19.91-2.53-19.91-2.53"/>
    <polygon class="cls-14" points="42.3 194.88 38.5 265.37 42.3 265.89 46.19 196.78 42.3 194.88"/>
    <path class="cls-8" d="M84.51,114.84s-25.45-13.44-35.59-47.8c0,0,5.28-36.06,1.08-28.98-13.37,22.56-26.05-7.21-32.93-9.71-2.21-.8-12.05,3.33-11.47,1.06,1.62-6.36-3.15-8.01,14.25-17.8C44.01-1.96,62.06,1.64,71.5,1.64c5.81,0,54.43,3.92,53.13,47.56-1.29,43.64-18.55,51.19-23.72,55.07-5.18,3.88-16.39,10.57-16.39,10.57Z"/>
    <path class="cls-8" d="M29.93,185.44s-19.82-18.4,9.51-101.8c0,0,3.73-40.26-15.1-55.21C5.51,13.48,52.09,11.75,52.09,11.75c0,0,20.38,123.16,9.41,134.09,0,0-7.8,.02-12,1.06,0,0-.29,15.67-12.08,31.63l-7.5,6.9Z"/>
    <path class="cls-8" d="M22.19,29.44c11.21,72.68-2.33,95.97-2.33,95.97C40.6,87.87,30.6,29.44,30.6,29.44h-8.41Z"/>
    <path class="cls-2" d="M12.37,127.05s10.07-5.51,15.81-5.31l-.81,3.66-12.62,1.45-2.38,.2Z"/>
    <g>
      <polygon class="cls-3" points="16.72 72.85 16.72 81.23 17.31 81.23 17.31 72.25 16.72 72.85"/>
      <g>
        <path class="cls-3" d="M17.01,86.37c-.59,0-1.06-1.39-1.06-3.12s.48-3.12,1.06-3.12,1.06,1.39,1.06,3.12-.48,3.12-1.06,3.12Z"/>
        <path class="cls-4" d="M17.01,86.01c-.52,0-.94-1.23-.94-2.76s.42-2.76,.94-2.76,.94,1.23,.94,2.76-.42,2.76-.94,2.76Z"/>
        <path class="cls-7" d="M17.01,85.32c-.39,0-.7-.92-.7-2.06s.32-2.06,.7-2.06,.7,.92,.7,2.06-.32,2.06-.7,2.06Z"/>
        <path class="cls-6" d="M17.01,84.35c-.21,0-.37-.49-.37-1.09s.17-1.09,.37-1.09,.37,.49,.37,1.09-.17,1.09-.37,1.09Z"/>
      </g>
      <g>
        <path class="cls-3" d="M19.48,78.42c-.39,0-.71-.93-.71-2.08s.32-2.08,.71-2.08,.71,.93,.71,2.08-.32,2.08-.71,2.08Z"/>
        <path class="cls-4" d="M19.48,78.18c-.35,0-.63-.82-.63-1.84s.28-1.84,.63-1.84,.63,.82,.63,1.84-.28,1.84-.63,1.84Z"/>
        <path class="cls-7" d="M19.48,77.72c-.26,0-.47-.62-.47-1.38s.21-1.38,.47-1.38,.47,.62,.47,1.38-.21,1.38-.47,1.38Z"/>
        <path class="cls-6" d="M19.48,77.07c-.14,0-.25-.33-.25-.73s.11-.73,.25-.73,.25,.33,.25,.73-.11,.73-.25,.73Z"/>
      </g>
      <rect class="cls-3" x="17.01" y="75.62" width="1.89" height="1.46"/>
    </g>
    <path class="cls-6" d="M12.24,72.25c-.16,0-.29-.58-.29-1.28s.13-1.28,.29-1.28,.29,.58,.29,1.28-.13,1.28-.29,1.28Z"/>
    <path class="cls-3" d="M374.97,283.37l-5.65-103.33c-.03-.59-.38-1.11-.91-1.37l-50.41-24.54c-.56-.27-.91-.84-.91-1.46v-48.85c0-.9-.73-1.62-1.62-1.62h-18.03c-.9,0-1.62,.73-1.62,1.62v47.38c0,.67-.41,1.28-1.04,1.52l-44.93,17.24c-.84,.32-1.26,1.27-.93,2.11,7.7,19.51,14.23,39.56,6.87,60.15-.18,.49-.11,1.04,.19,1.47l27.92,40.13c.3,.44,.37,1,.19,1.49l-16.27,43.67c-.4,1.07,.4,2.2,1.54,2.19l75.69-.86c1.18-.01,1.95-1.23,1.46-2.3l-21.08-46.03c-.2-.43-.2-.92,0-1.35l19.62-43.17c.7-1.54,2.98-1.12,3.09,.56,1.59,23.6,13.78,50.89,15.46,54.57,.13,.28,.17,.58,.13,.89l-2.75,20.18c-.01,.08-.02,.15-.01,.23l.12,15.43c0,.89,.73,1.61,1.62,1.61h14.83c.71,0,1.33-.46,1.55-1.13l4.89-15.4c.12-.38,.1-.8-.07-1.16l-8.77-19.29c-.08-.18-.13-.38-.14-.58Z"/>
    <path class="cls-12" d="M246.8,171.12l-9.13,3.5c-.56,.21-.95,.72-1.03,1.31l-12.23,95.84-10.98,24.72v24.45h19.5c.79,0,1.46-.56,1.6-1.34,6.68-37.83,15.57-80.64,20.55-87.19l.41,.6c7.82-20.88,1.21-41.2-6.59-60.97-.33-.83-1.26-1.24-2.1-.92Z"/>
    <path class="cls-8" d="M410.63,228.23c-1.17-.43-7.95-3.01-13.87-7.66-1.29-1.02-.45-3.09,1.18-2.9,10.79,1.23,36.26,1.75,56.59-16.32,1.1-.98,.48-2.8-1-2.85-8.83-.34-30.23-2.49-41.4-15.14-1.03-1.17-.05-2.98,1.49-2.7,4.62,.84,12.17,1.81,17.94,.54,1.5-.33,1.75-2.36,.38-3.04-7.41-3.7-24.07-14.01-28.21-33.5-.33-1.58,1.59-2.62,2.74-1.49,.1,.1,.21,.21,.32,.31,1.21,1.21,3.24-.04,2.68-1.67-2.57-7.6-7.74-19.21-17.43-29.32,0,0,3.57,4.06,12.93,4.12,6.12,.04,11.86-5.74,15.11-9.75,.94-1.16-.07-2.85-1.55-2.61-23.64,3.87-53.91-28.4-40.33-21.29,8.63,4.52,16.03,4.37,20.58,3.52,1.59-.3,1.82-2.45,.34-3.09-25.16-10.74-43.15-45.05-36.02-45.05,3.11,0,6.33,1.4,9.05,3.04,1.52,.92,3.23-.91,2.16-2.34-18.81-25.21-78.38-64.22-115.57-16.49-41.19,52.86,24.6,166.38,24.6,166.38,8.75,15.98,16.78,24.37,22.83,28.78,1.56,1.14,3.43-.9,2.19-2.37-1.94-2.28-3.12-4.23-3.42-4.75-.05-.09-.1-.18-.13-.28-5.42-14.55,24.62,9.5,33.54,16.87,1.07,.89,2.68,.1,2.65-1.29-.05-2.27-.47-5.42-2.04-8.57-2.75-5.5,22.05,13.82,31.8,28.34,.85,1.27,2.81,.78,2.97-.74,.47-4.57,.15-13.03-4.6-26.15-.55-1.51,1.19-2.81,2.49-1.86,6.16,4.53,18.49,11.15,39.21,12.77,30.87,2.41,2.68-1.05,.17-1.35-.12-.02-.23-.04-.35-.08Z"/>
    <path class="cls-8" d="M131.88,128.23c9.59,19.94,6.73,39.95,6.73,39.95-.86-5.81-4.98-11.52-4.98-11.52-5.79,26.88,17.77,45.63,17.77,45.63-8.85,1.71-23.7-7.75-23.7-7.75,5.52,21.83,38.09,31.33,38.09,31.33-32.35,16.58-64.28-2.6-64.28-2.6,3.99,8.9,13.03,15.77,13.03,15.77,0,0,28.16,13.12-.41,1.25-28.57-11.87-35.03-28.72-35.03-28.72,2.3,26.76-5.26,35.11-5.26,35.11-2.51-15.55-22.26-45.25-21.33-38.96,.94,6.29-1.87,11.36-1.87,11.36,0,0-4.84-39.99-11.58-25.24-.38,.82-.56,1.73-.57,2.64-.03,3.47-.03,13.11,.87,19.33,0,0-8.96-14.83-15.75-51.12,0,0,32.26-26.72,33.67-65.34C58.46,66.54,9.11,14.67,37.47,6.91c62.6-17.11,99.61,33.26,102.03,57.52,0,0-5.04-9.93-11.9-12.18-6.86-2.24,.43,38.81,22.94,54.45,0,0-11.61,1.73-22.47-9.42-10.86-11.14,10.01,32.73,34.57,31.55,0,0-11.74,9.8-20.23,6.97s-10.52-7.58-10.52-7.58Z"/>
    <g>
      <path class="cls-14" d="M233.19,206.4c.01-.1,0,0,.01-.09-.73-2.73-.27-9.88,1.18-17.23,1.65-8.36,3.96-13.82,5.15-12.19,1.2,1.63,.83,9.73-.81,18.1-1.53,7.78-3.64,13.04-4.89,12.43,0,.02,0,.04,0,.05-.35-.29-.45-.49-.64-1.06Z"/>
      <path class="cls-12" d="M233.41,204.23c-.79-3.07-.06-11.53,1.63-18.91,1.69-7.38,3.7-10.87,4.49-7.8,.79,3.07,.06,11.53-1.63,18.91-1.69,7.38-3.7,10.87-4.49,7.8Z"/>
      <path class="cls-14" d="M234.83,204.4c.04,.16-1.08,1.16-1.42-.15-.79-3.07-.06-11.53,1.63-18.91,1.6-7,3.5-10.5,4.36-8.21-.89,1.16-1.97,4.12-2.94,8.36-1.69,7.38-2.42,15.84-1.63,18.91Z"/>
    </g>
    <path class="cls-14" d="M225.43,272.19c.91,.15,1.76-.5,1.87-1.41l7.66-64.04-.44,.26c-.43,.25-.72,.69-.79,1.19l-8.31,64h0Z"/>
    <path class="cls-14" d="M224.4,271.77s16.65,2.79,18.75,2.94c1.48,.1,.38,2.46-.41,3.85-.34,.61-1.04,.92-1.73,.78l-18.35-3.67,1.73-3.9Z"/>
  </g>
</svg>