<?xml version="1.0" encoding="UTF-8"?>
<svg id="Capa_2" data-name="Capa 2" xmlns="http://www.w3.org/2000/svg" viewBox="0 0 225.11 763.08">
  <defs>
    <style>
      .cls-1, .cls-2 {
        fill: #fff;
      }

      .cls-3 {
        fill: #27221f;
      }

      .cls-4 {
        fill: #0c0c0c;
      }

      .cls-5 {
        fill: #03566f;
      }

      .cls-6 {
        stroke: #d69b8e;
        stroke-miterlimit: 10;
      }

      .cls-6, .cls-7 {
        fill: none;
      }

      .cls-8 {
        fill: #a44946;
      }

      .cls-2 {
        opacity: .57;
      }

      .cls-9 {
        fill: #00b0da;
      }

      .cls-10 {
        fill: #249184;
      }

      .cls-11 {
        fill: #339f9f;
      }

      .cls-12 {
        fill: #ffc7b6;
      }

      .cls-13 {
        fill: #353535;
      }

      .cls-14 {
        fill: #ed8472;
      }

      .cls-15 {
        fill: #a2bfdc;
      }

      .cls-16 {
        fill: #0a5951;
      }

      .cls-17 {
        fill: #8e3d3d;
      }

      .cls-18 {
        fill: #1e1e1e;
      }

      .cls-19 {
        fill: #666;
      }
    </style>
  </defs>
  <g id="Cabello_Atras" data-name="Cabello Atras">
    <path class="cls-11" d="M202.51,151.04s.17-118.64-56.05-141.4c-2.95-1.19-5.82-2.11-8.62-2.8v.64c-4.02-.97-6.84-.96-7.78-1.05-.89-.09-2.97,.37-5.5,1.07v-2.29c-2.8,.69-5.67,1.6-8.62,2.8-16.84,6.82-28.62,22.24-36.86,40.49-9.28,17.04-14.22,40.51-14.36,70.97-1.88,17.56-.97,29.45-.97,29.45-.81,34.91,14.16,54.89,14.16,54.89-4.34-6.57,.84-16.59,.84-16.59,2.67-16.62,7.92,19.71,7.92,19.71,0,0,3.59-4.14,3.95-10.15,.36-6,13.45,6.98,10.23,31.01,0,0,12.41-6.68,16.11-25.3,2.29,1.45,.7,13.7,2.65,14.76,1.3,2.09,2.91,4.36,4.94,6.78v-4.23c3.42,1.65,5.5,2.41,5.5,2.41,2.71-1.28,5.29-2.6,7.78-3.95v7.4c3.84-4.58,6.25-8.69,7.74-11.87,1.02-.63,1.25-8.6,2.22-9.24,3.52,21.31,15.69,25.06,15.69,25.06-8.62-16.02,7.92-37.19,8.28-31.19,.36,6,3.95,10.15,3.95,10.15,0,0,7.76-23.85,8.79-20.55,0,0,4.9,2.73,.56,9.3,0,0,18.25-11.36,17.44-46.27Z"/>
  </g>
  <g id="Cuerpo_Completo" data-name="Cuerpo Completo">
    <path d="M224.83,748.11c-1.38-4.6-3.02-9.12-4.41-13.72-1.85-6.12-4.14-12.19-5.18-18.46-1.25-7.57-1.75-15.32-1.91-23-.66-32.09-1.21-64.19-1.45-96.29-.04-5.81-1.11-10.94-4.19-15.79-9.5-14.97-18.9-30-28.48-44.91-1.71-2.66-2.88-5.35-3.23-8.42-.51-4.47-1.19-8.93-1.42-13.42-.97-18.73-2.21-37.46-2.6-56.21-.84-40.25-1.24-80.52-1.78-120.78-.09-6.33,.04-12.66,.01-18.99-.05-10.57-3.9-19.97-9.3-28.82-9.03-14.8-21.07-26.94-34.39-37.93-.63-.52-1.26-1.04-1.95-1.6,.53-.81,.95-1.44,1.36-2.08,6.69-10.15,13.62-20.15,20-30.48,9.12-14.76,18.68-29.35,23.18-46.76,.04,.08,.08,.14,.12,.22l-1.51-51.39c-1.83,.2-3.67,.4-5.5,.62-6.16,.75-12.24,2.13-18.63,3.28-.36-5.31-.72-10.51-1.08-15.79h-22.56c-.42,5.82-.83,11.52-1.23,17.22-.27,3.78-.03,3.13-3.36,3.27-10.92,.46-21.87,.81-32.54,3.34q-7.82,1.86-6.8,10.21c.85,6.82,3.35,13.15,6.35,19.27l-7.09,18c-.08,.12-.13,.25-.14,.37-.86,7.19,4.35,16.32,11.45,18.73,3.68,1.25,4.6,3.46,4.97,6.61,.12,.98,.3,1.96,.39,2.95,1.03,11.11-.46,22.07-2.16,33-.13,.85-.6,1.77-1.18,2.41-2.93,3.22-5.75,6.59-8.99,9.48-13.27,11.84-27.99,21.78-42.91,31.43l7,9.91c10.74-7.13,21.67-13.93,32.51-20.89-.16,.47-.44,.79-.75,1.08-12.38,11.35-18.97,25.59-19.53,42.08-.34,9.83,.83,19.79,2.11,29.58,2.85,21.79,7.76,43.21,13.31,64.47,11.29,43.2,25.32,85.53,41.04,127.33,1.63,4.34,3.81,8.6,4.59,13.1,.83,4.82,.24,9.88,.39,14.83,.06,2.03,.27,4.09,.69,6.07,.65,3.05,1.96,6.01,2.24,9.08,1.74,19.21,3.35,38.43,4.85,57.66,1.41,18.17,2.68,36.35,3.92,54.53,.51,7.45,.99,14.92,1.14,22.38,.1,4.99-1.83,9.15-6.41,11.9-8.28,4.98-16.41,10.22-24.77,15.07-3.08,1.79-6.61,2.8-9.94,4.15-.94,.38-1.89,.74-2.84,1.1-.02,.24-.04,.49-.05,.73,1.22,.49,2.4,1.16,3.67,1.44,4.4,.98,8.78,.52,12.96-.95,10.97-3.86,22.18-6.19,33.87-6,.83,.01,1.68-.18,2.5-.37,3.44-.83,4.98-3.07,4.52-6.58-.18-1.36-.31-2.74-.68-4.06-3.05-10.8-3.41-21.8-2.61-32.89,1.19-16.5,2.13-33.03,3.65-49.5,2.51-27.1,5.43-54.16,8.09-81.25,.09-.92-.48-2.15-1.15-2.86-5.7-5.98-11.47-11.89-17.27-17.77-2.74-2.78-4.11-6.14-4.98-9.85-3.16-13.49-4.41-27.24-5.44-41-2.44-32.41-3.1-64.89-3.25-97.38,0-.72,.06-1.44,.1-2.16,1.06,.95,1.8,1.98,2.23,3.14,3.55,9.58,7.49,19.05,10.47,28.8,10.75,35.15,21.19,70.38,31.69,105.61,1.8,6.04,4.01,12.09,4.78,18.29,1.87,15.05,3,30.18,4.46,45.28,.09,.96,.22,2.03,.71,2.82,7.45,12.09,12.11,25.3,16.1,38.79,5.63,19.05,9.43,38.5,12.48,58.1,1.78,11.43,3.63,22.83,2.04,34.54-.84,6.17-.36,12.53,1.7,18.55,.69,2.02,1.74,4.32,3.35,5.54,3.4,2.57,7.28,4.51,11.35,6.94,1.21-3.94,2.42-7.55,3.39-11.22,.31-1.17,.27-2.58-.08-3.74Z"/>
    <path class="cls-13" d="M110.41,177.03c.46,2.6,1.25,5.13,2.39,7.48,1.12,2.36,2.62,4.55,4.57,6.24,.97,.84,2.04,1.56,3.19,2.13,1.15,.55,2.38,.94,3.64,1.18,1.26,.23,2.55,.28,3.84,.25,.64-.05,1.29-.08,1.93-.18l1.91-.34c.32-.06,.64-.09,.95-.18l.93-.28c.61-.2,1.25-.33,1.84-.59l1.76-.79c.58-.28,1.1-.67,1.65-.99,2.14-1.42,3.89-3.37,5.21-5.59,1.32-2.23,2.17-4.73,2.7-7.29,.56-2.56,.76-5.2,.88-7.83,.11,2.64,0,5.29-.4,7.92-.44,2.62-1.22,5.21-2.51,7.58-1.27,2.38-3.15,4.43-5.37,5.97-.58,.35-1.12,.77-1.73,1.07l-1.84,.85c-.62,.28-1.28,.42-1.92,.64-.64,.21-1.29,.41-1.95,.5l-1.99,.33c-.66,.1-1.34,.12-2.01,.17-1.35,.02-2.71-.05-4.04-.31-2.66-.52-5.22-1.75-7.17-3.63-1.98-1.85-3.45-4.16-4.5-6.61-1.01-2.46-1.71-5.05-1.95-7.68Z"/>
  </g>
  <g id="Mano_R" data-name="Mano R">
    <path class="cls-12" d="M35.81,284.25c-.24,.15-.55,.19-.79,.27-2.33-2.86-4.45-5.79-6.92-8.38-1.98-2.08-4.27-3.95-6.68-5.53-1.05-.69-2.95-.95-4.1-.49-7.1,2.82-12.06,8.37-17.33,13.5,9.96,7.12,13.62,18.02,18.6,27.89,8.12-6.37,16.54-12.24,25.09-17.92l-7-9.91c-.29,.19-.58,.38-.88,.57Z"/>
    <g>
      <path class="cls-6" d="M19.29,274.74s.42,1.59,2.12,2.94,.68,8.9-3.73,8.65c0,0-.75-6.5-8.51-11.31"/>
      <line class="cls-6" x1="5.22" y1="288.23" x2="15.15" y2="280.53"/>
      <path class="cls-6" d="M14.01,301.95l9.77-6.56c0-4.62-4.07-7.16-4.07-7.16l-9.53,6.64"/>
      <path class="cls-6" d="M17.92,310.13s6.88-8.59,8.49-8.18,2.8-2.7-2.63-6.56"/>
      <path class="cls-6" d="M36.33,295.89s-6.26,5.37-15.97-10.62"/>
      <line class="cls-6" x1="19.5" y1="285.92" x2="19.71" y2="288.23"/>
    </g>
  </g>
  <g id="Brazo_L" data-name="Brazo L">
    <path d="M205.75,219.59c-.55-.73-1.82-7.26-1.79-8.08,.13-3.61,.16-1.35,.44-4.96,1.65-21.17,.23-42.34-1.73-63.52-.7-7.57-1.64-15.13-4.77-22.46-1.28-3-1.49-3.32-5.97-3.12-8.09,.36-16.17,.84-24.23,1.44l1.39,51.57c.68,.88,6.35-3.08,6.74-2.26,1.19,2.51-2.18-1.27-1.32,1.3,5.52,16.57,8.3,33.43,11.36,50.27,.86,4.74,.92,3.4,2.22,8.14,.07,.26,.58,1.24,1.22,2.43,3.21,2.81,12,3.48,15.44,2,2.76-1.19,4.56-6.38,3.07-10.09-.65-.83-1.35-1.7-2.07-2.66Z"/>
  </g>
  <g id="Cabeza">
    <path class="cls-12" d="M172.12,64.3c0-.81-.02-1.62-.06-2.43,0,0,0-.02,0-.03,.05-1,.07-2,.07-3.02,0-28.81-18.47-52.16-41.24-52.16s-41.24,23.35-41.24,52.16c0,6.65,.99,13,2.79,18.84,7.18,28.36,33.4,43.48,41.67,43.08,3.86-.19,11.29-4.12,18.57-11.2,0,0,.02-.02,.02-.02,.87-.85,1.74-1.74,2.6-2.68,.04-.04,.08-.09,.12-.13,.4-.44,.81-.9,1.21-1.36,.06-.07,.12-.14,.18-.21,.39-.45,.77-.91,1.15-1.38,.02-.02,.04-.04,.05-.07,.38-.46,.75-.94,1.12-1.42,.09-.12,.18-.23,.27-.35,.35-.47,.7-.94,1.05-1.42,.09-.12,.17-.24,.26-.37,.29-.41,.58-.84,.87-1.26,.08-.12,.16-.24,.24-.36,.32-.49,.64-.98,.95-1.48,.11-.17,.21-.34,.31-.51,.31-.5,.61-1.01,.9-1.52,.08-.15,.16-.29,.25-.44,.24-.43,.48-.86,.71-1.3,.09-.17,.19-.35,.28-.53,.27-.52,.54-1.05,.8-1.59,.1-.2,.19-.39,.28-.59,.24-.5,.47-1,.69-1.51,.08-.19,.16-.37,.24-.56,.21-.49,.41-.98,.61-1.47,.08-.2,.16-.41,.24-.61,.22-.57,.44-1.16,.64-1.74,.07-.2,.14-.4,.21-.6,.18-.51,.34-1.03,.51-1.56,.05-.16,.1-.31,.15-.47,.19-.62,.36-1.24,.53-1.87,.06-.21,.11-.42,.17-.63,.16-.64,.32-1.28,.46-1.94,.04-.18,.07-.35,.11-.53,.12-.58,.23-1.16,.34-1.74,.03-.16,.06-.33,.09-.49,.12-.69,.22-1.38,.31-2.08,.03-.2,.05-.4,.08-.6,.09-.72,.17-1.44,.23-2.17,0-.12,.02-.23,.03-.35,.05-.68,.1-1.36,.13-2.04,0-.17,.02-.33,.02-.5,.03-.75,.04-1.52,.04-2.28,0-.17,0-.34,0-.51Z"/>
  </g>
  <g id="Boca">
    <path class="cls-17" d="M133.5,99.3h-.92c-5,0-9.32,3.27-9.32,3.27h19.56s-4.31-3.26-9.32-3.27Z"/>
    <path class="cls-8" d="M133.08,102.57h-9.82s4.73,2.64,9.13,2.85h1.3c4.39-.21,9.13-2.85,9.13-2.85h-9.73Z"/>
  </g>
  <g id="Cabello_cabeza" data-name="Cabello cabeza">
    <path class="cls-11" d="M133.89,34.57c29.88-6.16,35.82,19.04,35.82,19.04,6.32-41.48-20.45-50.12-20.45-50.12,0,0-18.83-8.69-41.19,1.35-22.36,10.04-17.33,48.36-17.33,48.36,0,0,8.51-25.27,36.75-18.48l6.42-.15Z"/>
  </g>
  <g id="Nariz">
    <path class="cls-14" d="M135.48,88.52c-2.07,.99-4.74,.93-6.72-.32-.35-.23-.29-.67,.07-.84,1.45-.67,3.16-1.29,4.71-1.75,1.48-.45,2.76-1.36,4.24-1.79,.08-.02,.16,.02,.19,.1,.73,1.93-.79,3.78-2.49,4.6Z"/>
  </g>
  <g id="Ojo_R" data-name="Ojo R">
    <path class="cls-1" d="M124.19,69.58s-3.23,4.56-11.56,3.66-10.76-8.43-10.76-8.43c0,0,3.71-4.4,11.66-3.61s10.66,8.38,10.66,8.38Z"/>
  </g>
  <g id="Ojo_L" data-name="Ojo L">
    <path class="cls-4" d="M141.39,69.58s3.23,4.56,11.56,3.66c8.32-.9,10.76-8.43,10.76-8.43,0,0-3.71-4.4-11.66-3.61-7.95,.8-10.66,8.38-10.66,8.38Z"/>
  </g>
  <g id="Detalle_ojo" data-name="Detalle ojo">
    <polygon class="cls-4" points="154.99 72.86 154.99 80.9 156.65 80.9 156.65 72.28 154.99 72.86"/>
    <g>
      <path class="cls-4" d="M155.82,85.83c-1.63,0-2.96-1.34-2.96-2.99s1.32-2.99,2.96-2.99,2.96,1.34,2.96,2.99-1.32,2.99-2.96,2.99Z"/>
      <path class="cls-5" d="M155.82,85.49c-1.44,0-2.62-1.18-2.62-2.64s1.17-2.64,2.62-2.64,2.62,1.18,2.62,2.64-1.17,2.64-2.62,2.64Z"/>
      <path class="cls-9" d="M155.82,84.82c-1.08,0-1.96-.89-1.96-1.98s.88-1.98,1.96-1.98,1.96,.89,1.96,1.98-.88,1.98-1.96,1.98Z"/>
      <path class="cls-2" d="M155.82,83.89c-.57,0-1.04-.47-1.04-1.05s.46-1.05,1.04-1.05,1.04,.47,1.04,1.05-.46,1.05-1.04,1.05Z"/>
    </g>
    <g>
      <path class="cls-4" d="M162.68,78.21c-1.09,0-1.97-.89-1.97-1.99s.88-1.99,1.97-1.99,1.97,.89,1.97,1.99-.88,1.99-1.97,1.99Z"/>
      <path class="cls-5" d="M162.68,77.98c-.96,0-1.75-.79-1.75-1.76s.78-1.76,1.75-1.76,1.75,.79,1.75,1.76-.78,1.76-1.75,1.76Z"/>
      <path class="cls-9" d="M162.68,77.54c-.72,0-1.31-.59-1.31-1.32s.59-1.32,1.31-1.32,1.31,.59,1.31,1.32-.59,1.32-1.31,1.32Z"/>
      <path class="cls-2" d="M162.68,76.92c-.38,0-.69-.31-.69-.7s.31-.7,.69-.7,.69,.31,.69,.7-.31,.7-.69,.7Z"/>
    </g>
    <rect class="cls-4" x="155.82" y="75.52" width="5.26" height="1.4"/>
  </g>
  <g id="Pupila_R" data-name="Pupila R">
    <g>
      <circle class="cls-10" cx="114.94" cy="67.59" r="5.97"/>
      <circle class="cls-16" cx="114.94" cy="67.48" r="3.7"/>
    </g>
  </g>
  <g id="Pupila_L" data-name="Pupila L">
    <g>
      <g>
        <circle class="cls-5" cx="150.63" cy="67.59" r="5.97"/>
        <circle class="cls-9" cx="150.63" cy="67.48" r="3.7"/>
      </g>
      <path class="cls-2" d="M150.63,68.99c-.83,0-1.5-.68-1.5-1.52s.67-1.52,1.5-1.52,1.5,.68,1.5,1.52-.67,1.52-1.5,1.52Z"/>
    </g>
  </g>
  <g id="Pesta単a_R" data-name="Pesta単a R">
    <path class="cls-3" d="M100.03,62.92s9.22-7.03,19.33,.46c0,0-3.77-2.97-10.08-2.11,0,0-4.62,.48-7.41,3.54,0,0,1.79,5.67,8.07,7.86,0,0-3.55-.21-7.08-3.78s-2.83-5.97-2.83-5.97Z"/>
  </g>
  <g id="Pesta単a_L" data-name="Pesta単a L">
    <path class="cls-3" d="M165.54,62.92s-9.22-7.03-19.33,.46c0,0,3.77-2.97,10.08-2.11,0,0,4.62,.48,7.41,3.54,0,0-1.79,5.67-8.07,7.86,0,0,3.55-.21,7.08-3.78,3.53-3.57,2.83-5.97,2.83-5.97Z"/>
  </g>
  <g id="Ceja_R" data-name="Ceja R">
    <path class="cls-11" d="M122.51,55.17c-2.07,.62-4.13,.94-6.2,1.18-2.07,.22-4.13,.32-6.2,.32-2.07,0-4.13-.1-6.2-.32-2.07-.23-4.13-.55-6.2-1.18,2.07-.62,4.13-.95,6.2-1.18,2.07-.22,4.13-.32,6.2-.32,2.07,0,4.13,.1,6.2,.32,2.07,.23,4.13,.55,6.2,1.18Z"/>
  </g>
  <g id="Ceja_L" data-name="Ceja L">
    <path class="cls-11" d="M168.31,55.17c-2.07,.62-4.13,.94-6.2,1.18-2.07,.22-4.13,.32-6.2,.32-2.07,0-4.13-.1-6.2-.32-2.07-.23-4.13-.55-6.2-1.18,2.07-.62,4.13-.95,6.2-1.18,2.07-.22,4.13-.32,6.2-.32,2.07,0,4.13,.1,6.2,.32,2.07,.23,4.13,.55,6.2,1.18Z"/>
  </g>
  <g id="Mechon_R" data-name="Mechon R">
    <path class="cls-11" d="M93.73,149.98s11.4-9.25,6.29-41.28,2.72-64.08,11.39-76.63c0,0,.13-2.59,11.52-11.13,11.39-8.54-2.2-18.25-7.64-15.79s-12.94,3.24-23.17,18.25c-10.23,15.02-15.15,35.73-17.22,56.44-2.07,20.71,18.83,70.15,18.83,70.15Z"/>
  </g>
  <g id="Mechon_Frente" data-name="Mechon Frente">
    <path class="cls-11" d="M109.06,22.91c-18.33,41.51,9.3,70.16,9.3,70.16-23.07-29.25,3.1-71.32,3.1-71.32l-12.4,1.15Z"/>
  </g>
  <g id="Capa_41" data-name="Capa 41">
    <path class="cls-15" d="M205.96,237.75c-.51-.88-1.67-8.73-1.64-9.71,.12-4.34,.14-1.62,.4-5.96,1.51-25.45,.21-50.9-1.59-76.37-.64-9.12-.53-14.95-3.42-23.77-.75-2.29-6.19-7.13-8.81-6.97-2.78,.17-3.46,.36-6.24,.56-7.54,.55-13.14,6.58-12.51,13.44l-.02,25.8c-.04,1.3,2.26,13.7,2.38,14.73,.37,3.31,1.99,4.94,2.77,8.04,5.07,19.92,7.62,40.19,10.43,60.43,.79,5.7,.85,4.09,2.03,9.79,.06,.31,.53,1.5,1.12,2.92,2.95,3.37,11.02,4.18,14.18,2.4,2.53-1.43,4.19-7.68,2.82-12.13-.6-1-1.23-2.05-1.9-3.19Z"/>
    <path class="cls-15" d="M207.86,240.94c-4.22-5.03-9.06-5.46-11.82-3.9-2.92,1.66-6.3,4.76-5.18,13.63,1.05,2.57,2.49,5.96,2.64,6.54,1,3.87,2.2,7.72,2.83,11.64,2.99,18.67,3.3,44.09,3.36,62.92l10.88-.46c0-1.21-.36-7.84-.38-9.03-.27-21.39,.35-39.27,1.99-58.67,.28-3.3,.98-6.64,.65-9.9-.53-5.25-2.41-8.5-4.98-12.77Z"/>
    <path class="cls-15" d="M210.4,327.08s-9.97-3.47-10.73-.13c-2.64,11.7-7.41,17.03-10.16,22.38-2.75,5.35-5.58,12.87-3.32,14.56,2.26,1.69,9.85-6.33,11.37-9.28,1.51-2.94,7.44,13.54,8.63,18.32,1.19,4.78-5,18.49-2.24,20.55,.73,.55,1.97-.39,3.42-2.12,4.04-4.79,9.72-15.66,10.68-17.53,1.31-2.54-6.51-42.21-7.65-46.77Z"/>
    <path class="cls-19" d="M211.34,362.21c.22,.91,.33,1.84,.48,2.76,.15,.92,.24,1.85,.36,2.77,.23,1.85,.43,3.7,.59,5.56v.08s-.02,.09-.02,.09c-.73,2.65-1.49,5.29-2.31,7.92-.84,2.62-1.69,5.24-2.67,7.82,.52-2.71,1.18-5.38,1.84-8.05,.69-2.66,1.43-5.31,2.21-7.95l-.02,.17c-.12-1.86-.22-3.72-.29-5.58-.03-.93-.09-1.86-.1-2.79l-.08-2.8Z"/>
    <path class="cls-19" d="M213.95,357.24c.29,1.19,.52,2.39,.78,3.59l.67,3.6c.45,2.4,.82,4.81,1.18,7.23l.02,.13-.05,.13c-.91,2.22-1.82,4.44-2.81,6.62-.97,2.19-1.96,4.38-3.05,6.52,.71-2.3,1.52-4.56,2.34-6.81,.81-2.26,1.7-4.48,2.59-6.71l-.03,.26c-.35-2.42-.69-4.83-.96-7.26l-.4-3.64c-.1-1.22-.23-2.43-.29-3.66Z"/>
    <path class="cls-18" d="M201.35,257.47s0,0,.03-.04c4.14,.54,7.89-2.02,8.79-6.31,1.03-4.88-2.01-10.15-6.78-11.76-4.78-1.62-9.48,1.03-10.51,5.91-.96,4.54,1.6,9.41,5.81,11.37,0,0-.01,.02-.02,.03,1.25,.52,1.7,.63,2.68,.81Z"/>
    <path class="cls-15" d="M202.25,256.57c4.57,.56,8.44-2.79,8.64-7.49,.2-4.7-3.35-8.97-7.92-9.54-4.57-.56-8.44,2.79-8.64,7.49-.2,4.7,3.35,8.97,7.92,9.54Z"/>
    <path class="cls-18" d="M197.86,254.21c-.23-.03-.46-.07-.69-.11,1.36,1.33,3.12,2.24,5.06,2.48,4.57,.56,8.44-2.79,8.64-7.49,.19-4.46-3-8.54-7.23-9.42,1.85,1.8,2.97,4.36,2.86,7.06-.2,4.7-4.07,8.06-8.64,7.49Z"/>
    <line class="cls-7" x1="195.68" y1="261.03" x2="195.68" y2="261.03"/>
    <polygon class="cls-18" points="204.03 327.86 201.38 257.43 202.24 256.57 205.79 255.42 205.79 329.8 204.03 327.86"/>
    <path class="cls-18" d="M199.15,329.1s4.86,2.07,11.96,1.17l-.7-3.19-10.73-1.17-.52,3.19Z"/>
    <g>
      <path class="cls-18" d="M190.71,146.73c.02-.08,0,0,.02-.07,4.83-1.11,8.32-6.3,8.11-12.58-.24-7.14-5.18-12.99-11.03-13.06-5.85-.07-10.4,5.66-10.16,12.8,.22,6.64,4.51,12.16,9.82,12.96,0,.01,0,.03-.01,.04,1.56,.14,2.1,.11,3.26-.09Z"/>
      <path class="cls-15" d="M191.46,145.08c5.32-1.28,8.72-7.6,7.6-14.13-1.13-6.53-6.35-10.78-11.68-9.5-5.32,1.28-8.72,7.6-7.6,14.13,1.13,6.53,6.35,10.78,11.68,9.5Z"/>
      <path class="cls-18" d="M185.83,143.82c-.27,.07-.54,.12-.81,.15,1.92,1.2,4.16,1.66,6.42,1.12,5.32-1.28,8.72-7.6,7.6-14.13-1.07-6.2-5.84-10.34-10.87-9.65,2.6,1.63,4.6,4.63,5.25,8.38,1.13,6.53-2.27,12.85-7.6,14.13Z"/>
    </g>
    <polygon class="cls-18" points="193.86 216.68 187.78 146.43 188.6 145.54 192.09 144.24 195.71 218.55 193.86 216.68"/>
    <path class="cls-18" d="M184.92,217.99c16.98,1.9,20.05-.74,20.05-.74l.14-3.31c-8.89,2.05-20.68,.72-20.68,.72l.49,3.33Z"/>
  </g>
  <g id="Mechon_L" data-name="Mechon L">
    <path class="cls-11" d="M170.68,150.41s-11.4-9.25-6.29-41.28-2.72-64.08-11.39-76.63c0,0-.13-2.59-11.52-11.13-11.39-8.54,2.2-18.25,7.64-15.79s12.94,3.24,23.17,18.25c10.23,15.02,15.15,35.73,17.22,56.44s-18.83,70.15-18.83,70.15Z"/>
  </g>
</svg>