<?xml version="1.0" encoding="UTF-8"?>
<svg id="Capa_2" data-name="Capa 2" xmlns="http://www.w3.org/2000/svg" viewBox="0 0 1838.5 541.8">
  <defs>
    <style>
      .cls-1 {
        opacity: .5;
      }

      .cls-2, .cls-3 {
        fill: #00e7ff;
      }

      .cls-3, .cls-4 {
        font-family: FUNGAMES, 'FUN GAMES';
        font-size: 200px;
        isolation: isolate;
      }

      .cls-4 {
        fill: #1e3538;
      }
    </style>
  </defs>
  <g id="Capa_1-2" data-name="Capa 1-2">
    <g>
      <g>
        <path class="cls-2" d="M315.3,509.7c-6.5,0-11.8,5.3-11.8,11.8s5.3,11.8,11.8,11.8,11.8-5.3,11.8-11.8-5.3-11.8-11.8-11.8h0Zm0,32.1c-11.2,0-20.3-9.1-20.3-20.3s9.1-20.3,20.3-20.3,20.3,9.1,20.3,20.3c0,11.2-9.1,20.3-20.3,20.3h0Z"/>
        <polygon class="cls-2" points="319.6 505.4 311 505.4 311 432.6 24.1 432.6 24.1 79.6 103.7 0 171.8 0 171.8 8.6 107.2 8.6 32.6 83.1 32.6 424 319.6 424 319.6 505.4"/>
        <polygon class="cls-2" points="1709.1 432.6 330.8 432.6 330.8 424 1705.5 424 1799.4 330.1 1799.4 8.6 315.3 8.6 315.3 0 1807.9 0 1807.9 333.7 1709.1 432.6"/>
      </g>
      <g class="cls-1">
        <polygon class="cls-2" points="110 31.3 51.9 89.4 51.9 402.5 1688 402.5 1777.5 313.1 1777.5 31.3 110 31.3"/>
      </g>
      <polygon class="cls-2" points="24.1 312.9 24.1 432.6 120.3 433.2 96.3 457.3 0 457.3 0 336.9 24.1 312.9"/>
      <path class="cls-2" d="M1838.5,157h0c-4.6,0-8.4-3.8-8.4-8.4h-8.4v25.1h8.4c0-4.6,3.8-8.4,8.4-8.4h0v-8.3h0Z"/>
      <path class="cls-2" d="M1838.5,190.4h0c-4.6,0-8.4-3.8-8.4-8.4h-8.4v25.1h8.4c0-4.6,3.8-8.4,8.4-8.4h0v-8.3h0Z"/>
      <path class="cls-2" d="M1838.5,223.9h0c-4.6,0-8.4-3.8-8.4-8.4h-8.4v25.1h8.4c0-4.6,3.8-8.4,8.4-8.4h0v-8.3h0Z"/>
      <path class="cls-2" d="M1838.5,56.5h0c-4.6,0-8.4-3.8-8.4-8.4h-8.4v25.1h8.4c0-4.6,3.8-8.4,8.4-8.4h0v-8.3Z"/>
      <path class="cls-2" d="M1838.5,90h0c-4.6,0-8.4-3.8-8.4-8.4h-8.4v25.1h8.4c0-4.6,3.8-8.4,8.4-8.4h0c0,.1,0-8.3,0-8.3Z"/>
      <path class="cls-2" d="M1838.5,123.5h0c-4.6,0-8.4-3.8-8.4-8.4h-8.4v25.1h8.4c0-4.6,3.8-8.4,8.4-8.4h0v-8.3Z"/>
    </g>
    <text class="cls-4" transform="translate(73.82 282.32)"><tspan x="0" y="0">puto el que lo lea</tspan></text>
    <text class="cls-3" transform="translate(68.52 275.32)"><tspan x="0" y="0">puto el que lo lea</tspan></text>
  </g>
</svg>