<?xml version="1.0" encoding="utf-8"?>
<!-- Generator: Adobe Illustrator 26.4.1, SVG Export Plug-In . SVG Version: 6.00 Build 0)  -->
<svg version="1.1" id="Capa_2_00000118357594626785939930000015453843214566778011_"
	 xmlns="http://www.w3.org/2000/svg" xmlns:xlink="http://www.w3.org/1999/xlink" x="0px" y="0px" viewBox="0 0 1838.5 541.8"
	 style="enable-background:new 0 0 1838.5 541.8;" xml:space="preserve">
<style type="text/css">
	.st0{fill:#00E7FF;}
	.st1{opacity:0.5;}
	.st2{fill:#1E3538;}
	.st3{font-family:'FUNGAMES';}
	.st4{font-size:200px;}
</style>
<g id="Capa_1-2">
	<g>
		<g>
			<path class="st0" d="M315.3,509.7c-6.5,0-11.8,5.3-11.8,11.8s5.3,11.8,11.8,11.8s11.8-5.3,11.8-11.8S321.8,509.7,315.3,509.7
				L315.3,509.7z M315.3,541.8c-11.2,0-20.3-9.1-20.3-20.3c0-11.2,9.1-20.3,20.3-20.3s20.3,9.1,20.3,20.3
				C335.6,532.7,326.5,541.8,315.3,541.8L315.3,541.8z"/>
			<polygon class="st0" points="319.6,505.4 311,505.4 311,432.6 24.1,432.6 24.1,79.6 103.7,0 171.8,0 171.8,8.6 107.2,8.6 
				32.6,83.1 32.6,424 319.6,424 319.6,505.4 			"/>
			<polygon class="st0" points="1709.1,432.6 330.8,432.6 330.8,424 1705.5,424 1799.4,330.1 1799.4,8.6 315.3,8.6 315.3,0 
				1807.9,0 1807.9,333.7 1709.1,432.6 			"/>
		</g>
		<g class="st1">
			<polygon class="st0" points="110,31.3 51.9,89.4 51.9,402.5 1688,402.5 1777.5,313.1 1777.5,31.3 			"/>
		</g>
		<polygon class="st0" points="24.1,312.9 24.1,432.6 120.3,433.2 96.3,457.3 0,457.3 0,336.9 		"/>
		<path class="st0" d="M1838.5,157L1838.5,157c-4.6,0-8.4-3.8-8.4-8.4h-8.4v25.1h8.4c0-4.6,3.8-8.4,8.4-8.4l0,0V157L1838.5,157z"/>
		<path class="st0" d="M1838.5,190.4L1838.5,190.4c-4.6,0-8.4-3.8-8.4-8.4h-8.4v25.1h8.4c0-4.6,3.8-8.4,8.4-8.4l0,0V190.4
			L1838.5,190.4z"/>
		<path class="st0" d="M1838.5,223.9L1838.5,223.9c-4.6,0-8.4-3.8-8.4-8.4h-8.4v25.1h8.4c0-4.6,3.8-8.4,8.4-8.4l0,0V223.9
			L1838.5,223.9z"/>
		<path class="st0" d="M1838.5,56.5L1838.5,56.5c-4.6,0-8.4-3.8-8.4-8.4h-8.4v25.1h8.4c0-4.6,3.8-8.4,8.4-8.4l0,0V56.5z"/>
		<path class="st0" d="M1838.5,90L1838.5,90c-4.6,0-8.4-3.8-8.4-8.4h-8.4v25.1h8.4c0-4.6,3.8-8.4,8.4-8.4l0,0
			C1838.5,98.4,1838.5,90,1838.5,90z"/>
		<path class="st0" d="M1838.5,123.5L1838.5,123.5c-4.6,0-8.4-3.8-8.4-8.4h-8.4v25.1h8.4c0-4.6,3.8-8.4,8.4-8.4l0,0V123.5z"/>
	</g>
	<text transform="matrix(1 0 0 1 73.8177 282.3198)" class="st2 st3 st4">pUTO EL QUE LO LEA</text>
	<text transform="matrix(1 0 0 1 68.5223 275.3201)" class="st0 st3 st4">PUTO EL QUE LO LEA</text>
</g>
</svg>
